<svg width="60" height="61" viewBox="0 0 60 61" fill="none" xmlns="http://www.w3.org/2000/svg">
<path d="M14.2501 24.748V38.3184C14.2501 40.123 12.8322 41.5644 11.0275 41.5644C9.2345 41.5644 7.50012 40.1113 7.50012 38.3184V24.748C7.50012 22.9785 9.2345 21.5254 11.0275 21.5254C12.797 21.5254 14.2501 22.9785 14.2501 24.748ZM15.5157 43.1465C15.5157 45.0684 17.0626 46.6152 18.9845 46.6152H21.3165L21.3517 53.7754C21.3517 58.0996 27.8204 58.0644 27.8204 53.7754V46.6152H32.1798V53.7754C32.1798 58.0762 38.6837 58.0879 38.6837 53.7754V46.6152H41.0509C42.9493 46.6152 44.4962 45.0684 44.4962 43.1465V22.123H15.5157V43.1465ZM44.5782 20.9863H15.3868C15.3868 15.9707 18.3868 11.6113 22.84 9.33789L20.6017 5.20117C20.2736 4.62695 21.1056 4.26367 21.3868 4.75585L23.6603 8.92773C27.7501 7.11132 32.4493 7.20507 36.3517 8.92773L38.6134 4.76757C38.9064 4.26367 39.7267 4.63867 39.3986 5.21289L37.1603 9.33789C41.5782 11.6113 44.5782 15.9707 44.5782 20.9863ZM24.5743 14.4824C24.5743 13.8144 24.0353 13.2519 23.3439 13.2519C22.6759 13.2519 22.1486 13.8144 22.1486 14.4824C22.1486 15.1504 22.6876 15.7129 23.3439 15.7129C24.0353 15.7129 24.5743 15.1504 24.5743 14.4824ZM37.8634 14.4824C37.8634 13.8144 37.3243 13.2519 36.6681 13.2519C35.9767 13.2519 35.4376 13.8144 35.4376 14.4824C35.4376 15.1504 35.9767 15.7129 36.6681 15.7129C37.3243 15.7129 37.8634 15.1504 37.8634 14.4824ZM48.9728 21.5254C47.2032 21.5254 45.7501 22.9434 45.7501 24.748V38.3184C45.7501 40.123 47.2032 41.5644 48.9728 41.5644C50.7775 41.5644 52.5001 40.1113 52.5001 38.3184V24.748C52.5001 22.9434 50.7657 21.5254 48.9728 21.5254Z" fill="#272847"/>
</svg>
