<svg width="40" height="41" viewBox="0 0 40 41" fill="none" xmlns="http://www.w3.org/2000/svg">
<g clip-path="url(#clip0_1_841)">
<path d="M17.432 36.7521L13.6195 35.6458C13.2195 35.5333 12.9945 35.1146 13.107 34.7146L21.6382 5.32707C21.7507 4.92707 22.1695 4.70207 22.5695 4.81457L26.382 5.92082C26.782 6.03332 27.007 6.45207 26.8945 6.85207L18.3632 36.2396C18.2445 36.6396 17.832 36.8708 17.432 36.7521ZM10.307 29.7396L13.0257 26.8396C13.3132 26.5333 13.2945 26.0458 12.9757 25.7646L7.31321 20.7833L12.9757 15.8021C13.2945 15.5208 13.3195 15.0333 13.0257 14.7271L10.307 11.8271C10.0257 11.5271 9.55071 11.5083 9.24446 11.7958L0.238208 20.2333C-0.080542 20.5271 -0.080542 21.0333 0.238208 21.3271L9.24446 29.7708C9.55071 30.0583 10.0257 30.0458 10.307 29.7396ZM30.757 29.7771L39.7632 21.3333C40.082 21.0396 40.082 20.5333 39.7632 20.2396L30.757 11.7896C30.457 11.5083 29.982 11.5208 29.6945 11.8208L26.9757 14.7208C26.6882 15.0271 26.707 15.5146 27.0257 15.7958L32.6882 20.7833L27.0257 25.7646C26.707 26.0458 26.682 26.5333 26.9757 26.8396L29.6945 29.7396C29.9757 30.0458 30.4507 30.0583 30.757 29.7771Z" fill="#272847"/>
</g>
<defs>
<clipPath id="clip0_1_841">
<rect width="40" height="40" fill="white" transform="translate(0.00012207 0.783691)"/>
</clipPath>
</defs>
</svg>
