<svg width="10" height="6" viewBox="0 0 10 6" fill="none" xmlns="http://www.w3.org/2000/svg">
<path d="M0.333984 0.606667C0.333984 0.482222 0.365095 0.365556 0.427318 0.256667C0.48954 0.147778 0.575095 0.0777778 0.683984 0.0466667C0.792873 0.0155556 0.90954 0.00777778 1.03398 0.0233333C1.15843 0.0388889 1.25176 0.0933333 1.31398 0.186667L5.00065 3.82667L8.68732 0.186667C8.78065 0.0622222 8.91287 0 9.08398 0C9.2551 0 9.3951 0.0544444 9.50398 0.163333C9.61287 0.272222 9.66732 0.412222 9.66732 0.583333C9.66732 0.754444 9.6051 0.886667 9.48065 0.98L5.42065 5.08667C5.29621 5.18 5.15621 5.22667 5.00065 5.22667C4.8451 5.22667 4.7051 5.18 4.58065 5.08667L0.520651 0.98C0.396207 0.886667 0.333984 0.746667 0.333984 0.56V0.606667Z" fill="#161439"/>
</svg>
