<svg width="24" height="25" viewBox="0 0 24 25" fill="none" xmlns="http://www.w3.org/2000/svg">
<path d="M14.0001 2.28369H6.00012C5.46969 2.28369 4.96098 2.49441 4.58591 2.86948C4.21084 3.24455 4.00012 3.75326 4.00012 4.28369V20.2837C4.00012 20.8141 4.21084 21.3228 4.58591 21.6979C4.96098 22.073 5.46969 22.2837 6.00012 22.2837H18.0001C18.5306 22.2837 19.0393 22.073 19.4143 21.6979C19.7894 21.3228 20.0001 20.8141 20.0001 20.2837V8.28369L14.0001 2.28369Z" stroke="#4C70F0" stroke-width="1.5" stroke-linecap="round" stroke-linejoin="round"/>
<path d="M14.0001 2.28369V8.28369H20.0001" stroke="#4C70F0" stroke-width="1.5" stroke-linecap="round" stroke-linejoin="round"/>
<path d="M16.0001 13.2837H8.00012" stroke="#4C70F0" stroke-width="1.5" stroke-linecap="round" stroke-linejoin="round"/>
<path d="M16.0001 17.2837H8.00012" stroke="#4C70F0" stroke-width="1.5" stroke-linecap="round" stroke-linejoin="round"/>
<path d="M10.0001 9.28369H9.00012H8.00012" stroke="#4C70F0" stroke-width="1.5" stroke-linecap="round" stroke-linejoin="round"/>
</svg>
