<svg width="162" height="33" viewBox="0 0 162 33" fill="none" xmlns="http://www.w3.org/2000/svg">
<path fill-rule="evenodd" clip-rule="evenodd" d="M2.22009 11.9058C12.198 8.32067 22.176 4.77872 32.1539 1.19358C35.4367 -0.0158712 37.8988 1.7983 36.9485 5.25386L29.2167 30.0043C28.6552 32.38 26.2363 32.9416 24.0333 30.9978L21.0097 28.7085L15.3944 24.4754L10.5134 27.8446C10.5134 27.8446 8.5265 28.7949 8.5265 26.592V18.8601L26.8842 10.1348L15.6104 20.0264L25.3724 27.1967L32.5859 4.73553L5.89163 13.8496L9.90872 15.9229L6.06441 17.7371L1.57218 15.3182C-0.285189 14.2815 0.492313 12.5537 2.22009 11.9058Z" fill="#4C70F0"/>
<path fill-rule="evenodd" clip-rule="evenodd" d="M15.3503 24.4754L13.1906 25.9872L10.3829 20.6743L15.3503 24.4754Z" fill="#2B3C89"/>
<path fill-rule="evenodd" clip-rule="evenodd" d="M76.5461 19.0781C76.5461 19.3056 76.5461 19.5786 76.5006 19.9426H66.5813C66.7633 20.8526 67.2183 21.6261 67.9464 22.1721C68.6744 22.7182 69.5844 22.9912 70.6764 22.9912C72.087 22.9912 73.2245 22.5361 74.089 21.6261L75.6816 23.4462C75.1356 24.1287 74.4075 24.6292 73.543 24.9932C72.6785 25.3572 71.6775 25.4937 70.5854 25.4937C69.1749 25.4937 67.9919 25.2207 66.8998 24.6747C65.8533 24.1287 65.0343 23.3552 64.4428 22.3541C63.8513 21.3531 63.5782 20.2611 63.5782 18.9871C63.5782 17.7585 63.8512 16.6665 64.3973 15.6655C64.9433 14.6644 65.7168 13.8909 66.7178 13.3449C67.7189 12.7989 68.8564 12.5259 70.0849 12.5259C71.3134 12.5259 72.4055 12.7989 73.4065 13.3449C74.362 13.8909 75.1356 14.6644 75.6816 15.62C76.2731 16.6665 76.5461 17.804 76.5461 19.0781ZM70.1759 14.9374C69.2204 14.9374 68.4469 15.2105 67.7644 15.7565C67.1273 16.3025 66.7178 17.076 66.5813 17.986H73.7705C73.634 17.076 73.27 16.348 72.5875 15.7565C71.9505 15.2105 71.1315 14.9374 70.1759 14.9374Z" fill="white"/>
<path fill-rule="evenodd" clip-rule="evenodd" d="M97.7961 19.0781C97.7961 19.3056 97.7961 19.5786 97.7506 19.9426H87.8313C88.0133 20.8526 88.4683 21.6261 89.1964 22.1721C89.9244 22.7182 90.8344 22.9912 91.9264 22.9912C93.337 22.9912 94.4745 22.5361 95.339 21.6261L96.9316 23.4462C96.3856 24.1287 95.6575 24.6292 94.793 24.9932C93.9285 25.3572 92.9275 25.4937 91.8354 25.4937C90.4249 25.4937 89.2419 25.2207 88.1498 24.6747C87.1033 24.1287 86.2843 23.3552 85.6928 22.3541C85.1013 21.3531 84.8282 20.2611 84.8282 18.9871C84.8282 17.7585 85.1013 16.6665 85.6473 15.6655C86.1933 14.6644 86.9668 13.8909 87.9678 13.3449C88.9689 12.7989 90.0609 12.5259 91.3349 12.5259C92.5635 12.5259 93.6555 12.7989 94.6565 13.3449C95.612 13.8909 96.3856 14.6644 96.9316 15.62C97.5231 16.6665 97.7961 17.804 97.7961 19.0781ZM91.4259 14.9374C90.4704 14.9374 89.6969 15.2105 89.0144 15.7565C88.3773 16.3025 87.9678 17.076 87.8313 17.986H95.0205C94.884 17.076 94.52 16.348 93.883 15.7565C93.2005 15.2105 92.3815 14.9374 91.4259 14.9374Z" fill="white"/>
<path fill-rule="evenodd" clip-rule="evenodd" d="M102.071 14.5748C102.936 13.2553 104.437 12.5728 106.576 12.5728V15.3028C106.303 15.3028 106.075 15.3028 105.893 15.3028C104.756 15.3028 103.846 15.6213 103.209 16.3039C102.572 16.9864 102.253 17.9419 102.253 19.2159V25.3586H99.2501V12.7093H102.071V14.5748Z" fill="white"/>
<path fill-rule="evenodd" clip-rule="evenodd" d="M118.587 10.796C118.041 10.796 117.586 10.614 117.222 10.25C116.858 9.88602 116.676 9.43101 116.676 8.93049C116.676 8.38448 116.858 7.97496 117.222 7.61095C117.586 7.24694 118.041 7.06494 118.587 7.06494C119.133 7.06494 119.588 7.24695 119.952 7.56546C120.316 7.88397 120.498 8.33898 120.498 8.83949C120.498 9.38551 120.316 9.84052 119.952 10.2045C119.588 10.614 119.133 10.796 118.587 10.796Z" fill="white"/>
<path fill-rule="evenodd" clip-rule="evenodd" d="M117.09 12.7056H120.048V25.3549H117.09V12.7056Z" fill="white"/>
<path fill-rule="evenodd" clip-rule="evenodd" d="M145.753 19.0773C145.753 19.3048 145.753 19.5778 145.708 19.9418H135.788C135.97 20.8519 136.425 21.6254 137.153 22.1714C137.881 22.7174 138.791 22.9904 139.883 22.9904C141.294 22.9904 142.431 22.5354 143.296 21.6254L144.889 23.4454C144.343 24.128 143.615 24.6285 142.75 24.9925C141.885 25.3565 140.884 25.493 139.792 25.493C138.382 25.493 137.199 25.22 136.107 24.674C135.06 24.128 134.241 23.3544 133.65 22.3534C133.058 21.3524 132.785 20.2604 132.785 18.9863C132.785 17.7578 133.058 16.6658 133.604 15.6647C134.15 14.6637 134.924 13.8902 135.925 13.3442C136.926 12.7982 138.018 12.5251 139.292 12.5251C140.52 12.5251 141.612 12.7982 142.613 13.3442C143.569 13.8902 144.343 14.6637 144.889 15.6192C145.48 16.6658 145.753 17.8033 145.753 19.0773ZM139.337 14.9367C138.382 14.9367 137.608 15.2097 136.926 15.7557C136.289 16.3018 135.879 17.0753 135.743 17.9853H142.932C142.795 17.0753 142.431 16.3473 141.794 15.7557C141.112 15.2097 140.293 14.9367 139.337 14.9367Z" fill="white"/>
<path fill-rule="evenodd" clip-rule="evenodd" d="M150.166 14.5709C151.031 13.2514 152.532 12.5688 154.671 12.5688V15.3899C154.398 15.3444 154.17 15.2989 153.988 15.2989C152.851 15.2989 151.941 15.6174 151.304 16.2999C150.667 16.9825 150.348 17.938 150.348 19.212V25.3547H147.391V12.7054H150.212V14.5709H150.166Z" fill="white"/>
<path fill-rule="evenodd" clip-rule="evenodd" d="M85.6479 10.0227C85.6024 10.0227 82.6903 10.0227 82.5993 10.0227C81.5073 10.1137 80.9158 10.7507 80.9158 12.0702V12.8437H84.3284V15.2098H81.0523V25.4021H78.0947V20.8974V15.1643V12.7982V12.4797V12.0247C78.0947 10.6597 78.5042 9.61314 79.2778 8.79412C80.0513 8.0206 81.1888 7.61108 82.5993 7.61108C82.6448 7.61108 85.6024 7.61108 85.6479 7.61108V10.0227Z" fill="white"/>
<path fill-rule="evenodd" clip-rule="evenodd" d="M58.8008 20.0328C59.0283 19.9418 59.2558 19.9418 59.4378 19.8508C60.4844 19.3958 61.3034 18.7133 61.8949 17.8033C62.4409 16.8933 62.7594 15.8467 62.7594 14.6637C62.7594 13.4352 62.4864 12.3886 61.8949 11.5241C61.3034 10.6596 60.5299 9.97707 59.4378 9.47656C58.3913 9.02155 57.1173 8.74854 55.6612 8.74854H48.8361V25.311H51.9301V11.3421H55.5247C56.8898 11.3421 57.8908 11.6151 58.5733 12.2066C59.2558 12.7526 59.6198 13.5717 59.6198 14.6637C59.6198 15.7102 59.2558 16.5292 58.5733 17.1208C57.8908 17.6668 56.8443 17.9853 55.5247 17.9853H53.4317L59.4378 25.3565H63.1234L58.8008 20.0328Z" fill="white"/>
<path fill-rule="evenodd" clip-rule="evenodd" d="M110.991 14.5748C111.855 13.2553 113.357 12.5728 115.495 12.5728V15.3028C115.222 15.3028 114.995 15.3028 114.813 15.3028C113.675 15.3028 112.765 15.6213 112.128 16.3039C111.491 16.9864 111.173 17.9419 111.173 19.2159V25.3586H108.215V12.7093H111.036V14.5748H110.991Z" fill="white"/>
<path fill-rule="evenodd" clip-rule="evenodd" d="M155.811 8.1116H154.719V7.61108H157.495V8.1116H156.403V10.8872H155.811V8.1116Z" fill="white"/>
<path fill-rule="evenodd" clip-rule="evenodd" d="M161.226 10.8879L161.18 8.70385L160.134 10.5239H159.861L158.769 8.74935V10.8879H158.223V7.61182H158.723L159.997 9.79588L161.271 7.61182H161.772V10.8879H161.226Z" fill="white"/>
<path fill-rule="evenodd" clip-rule="evenodd" d="M132.557 22.9888V25.3549H121.637V23.4894L128.599 15.0716H121.773V12.7056H132.375V14.5711L125.413 22.9888H132.557Z" fill="white"/>
</svg>
