<svg width="60" height="61" viewBox="0 0 60 61" fill="none" xmlns="http://www.w3.org/2000/svg">
<path d="M30.4903 55.3022C29.8305 55.3022 29.1608 55.1237 28.5798 54.7863L22.5037 51.1649C21.5977 50.649 22.0409 50.4704 22.3363 50.3712C23.5476 49.9446 23.7938 49.8553 25.0838 49.1112C25.2217 49.0318 25.399 49.0616 25.5368 49.1508L30.2047 51.9388C30.3721 52.038 30.6084 52.038 30.766 51.9388L48.9549 41.3624C49.1223 41.2632 49.2307 41.0647 49.2307 40.8663V19.7134C49.2307 19.505 49.1223 19.3165 48.9451 19.2074L30.766 8.64087C30.5986 8.54166 30.3721 8.54166 30.2047 8.64087L12.0355 19.2173C11.8582 19.3165 11.7499 19.515 11.7499 19.7233V40.8663C11.7499 41.0647 11.8582 41.2632 12.0355 41.3525L17.0185 44.2496C19.7266 45.6088 21.3811 44.0114 21.3811 42.3942V21.5191C21.3811 21.2215 21.6174 20.9933 21.9128 20.9933H24.2172C24.5028 20.9933 24.749 21.2215 24.749 21.5191V42.4041C24.749 46.0355 22.7794 48.119 19.3623 48.119C18.3085 48.119 17.4813 48.119 15.1769 46.9681L10.4106 44.2C9.22886 43.5154 8.50012 42.2355 8.50012 40.8564V19.7134C8.50012 18.3442 9.22886 17.0544 10.4106 16.3698L28.5798 5.79337C29.732 5.13854 31.2584 5.13854 32.4007 5.79337L50.5896 16.3797C51.7714 17.0643 52.5001 18.3442 52.5001 19.7233V40.8663C52.5001 42.2355 51.7714 43.5154 50.5896 44.2099L32.4007 54.7863C31.8197 55.1237 31.1599 55.3022 30.4903 55.3022ZM45.1734 34.4569C45.1734 30.4982 42.5144 29.4465 36.9307 28.7024C31.2781 27.9483 30.7069 27.5614 30.7069 26.2319C30.7069 25.1306 31.1895 23.6622 35.3748 23.6622C39.1071 23.6622 40.4858 24.4758 41.057 27.0157C41.1062 27.2538 41.3229 27.4324 41.5691 27.4324H43.9325C44.0802 27.4324 44.2181 27.3729 44.3166 27.2638C44.4151 27.1546 44.4643 27.0058 44.4545 26.857C44.0901 22.4815 41.2047 20.4476 35.3748 20.4476C30.185 20.4476 27.0928 22.6502 27.0928 26.351C27.0928 30.3593 30.1751 31.4705 35.1483 31.9666C41.1062 32.552 41.5691 33.435 41.5691 34.6157C41.5691 36.6595 39.9343 37.5326 36.1035 37.5326C31.2879 37.5326 30.2342 36.3123 29.8797 33.9013C29.8403 33.6434 29.6237 33.4548 29.3578 33.4548H27.0042C26.7087 33.4548 26.4822 33.693 26.4822 33.9807C26.4822 37.0663 28.1465 40.7472 36.1134 40.7472C41.8645 40.7373 45.1734 38.4454 45.1734 34.4569Z" fill="#272847"/>
</svg>
