<svg width="231" height="77" viewBox="0 0 231 77" fill="none" xmlns="http://www.w3.org/2000/svg">
<path d="M83.6969 36.5799C81.7129 36.5799 79.9609 36.2599 78.4409 35.6199C76.9209 34.9639 75.6489 34.0519 74.6249 32.8839C73.6009 31.6999 72.8249 30.3239 72.2969 28.7559C71.7849 27.1719 71.5289 25.4599 71.5289 23.6199C71.5289 20.1159 72.2249 16.8519 73.6169 13.8279C75.0089 10.8039 77.1449 8.23591 80.0249 6.12391C82.9049 4.0119 86.5689 2.5799 91.0169 1.82791V7.58791C89.3369 7.90791 87.6889 8.45191 86.0729 9.2199C84.4569 9.9879 83.0169 10.9799 81.7529 12.1959C80.4889 13.4119 79.5609 14.8519 78.9689 16.5159C79.5929 15.9879 80.3849 15.5639 81.3449 15.2439C82.3049 14.9079 83.3929 14.7399 84.6089 14.7399C86.7049 14.7399 88.5689 15.2119 90.2009 16.1559C91.8489 17.0999 93.1449 18.3879 94.0889 20.0199C95.0489 21.6519 95.5289 23.5079 95.5289 25.5879C95.5289 27.7479 95.0169 29.6519 93.9929 31.2999C92.9689 32.9479 91.5609 34.2439 89.7689 35.1879C87.9929 36.1159 85.9689 36.5799 83.6969 36.5799ZM83.6729 30.7239C84.7769 30.7239 85.7609 30.5159 86.6249 30.0999C87.4889 29.6839 88.1609 29.1079 88.6409 28.3719C89.1209 27.6199 89.3609 26.7239 89.3609 25.6839C89.3609 24.1319 88.8249 22.8999 87.7529 21.9879C86.6969 21.0599 85.3369 20.5959 83.6729 20.5959C82.5529 20.5959 81.5529 20.8119 80.6729 21.2439C79.8089 21.6599 79.1289 22.2519 78.6329 23.0199C78.1369 23.7879 77.8889 24.6759 77.8889 25.6839C77.8889 26.7239 78.1369 27.6199 78.6329 28.3719C79.1449 29.1079 79.8329 29.6839 80.6969 30.0999C81.5769 30.5159 82.5689 30.7239 83.6729 30.7239ZM109.125 36.5799C107.429 36.5799 105.901 36.4039 104.541 36.0519C103.181 35.7159 101.997 35.2839 100.989 34.7559C99.9813 34.2119 99.1573 33.6679 98.5173 33.1239L101.853 28.2519C102.429 28.6839 103.069 29.0919 103.773 29.4759C104.493 29.8439 105.285 30.1479 106.149 30.3879C107.029 30.6279 108.013 30.7479 109.101 30.7479C110.397 30.7479 111.533 30.5079 112.509 30.0279C113.501 29.5479 114.277 28.8679 114.837 27.9879C115.397 27.1079 115.677 26.0679 115.677 24.8679C115.677 23.8279 115.477 22.9159 115.077 22.1319C114.693 21.3319 114.133 20.7079 113.397 20.2599C112.677 19.7959 111.789 19.5639 110.733 19.5639C109.405 19.5639 108.293 19.8039 107.397 20.2839C106.501 20.7479 105.725 21.3559 105.069 22.1079L99.5493 19.4439L100.701 2.4039H119.757V8.33191H106.365L105.765 14.9559C106.533 14.5719 107.341 14.2679 108.189 14.0439C109.037 13.8039 109.941 13.6839 110.901 13.6839C113.253 13.6839 115.245 14.1799 116.877 15.1719C118.525 16.1639 119.773 17.4999 120.621 19.1799C121.485 20.8599 121.917 22.7319 121.917 24.7959C121.917 27.1319 121.365 29.1879 120.261 30.9639C119.173 32.7239 117.669 34.0999 115.749 35.0919C113.829 36.0839 111.621 36.5799 109.125 36.5799Z" fill="#4C70F0"/>
<path d="M128.509 36.5799L151.405 1.82791H157.477L134.581 36.5799H128.509ZM132.973 19.3959C131.005 19.3959 129.421 18.9479 128.221 18.0519C127.037 17.1559 126.181 16.0359 125.653 14.6919C125.125 13.3319 124.861 11.9799 124.861 10.6359C124.861 9.69191 125.005 8.7079 125.293 7.6839C125.581 6.6599 126.037 5.7079 126.661 4.82791C127.301 3.93191 128.141 3.21191 129.181 2.6679C130.221 2.10791 131.485 1.82791 132.973 1.82791C134.461 1.82791 135.717 2.09191 136.741 2.61991C137.765 3.1319 138.589 3.8199 139.213 4.6839C139.853 5.5479 140.317 6.4999 140.605 7.5399C140.909 8.5639 141.061 9.5959 141.061 10.6359C141.061 11.5799 140.917 12.5639 140.629 13.5879C140.357 14.6119 139.909 15.5639 139.285 16.4439C138.661 17.3239 137.829 18.0359 136.789 18.5799C135.765 19.1239 134.493 19.3959 132.973 19.3959ZM132.973 14.3559C133.613 14.3559 134.141 14.1879 134.557 13.8519C134.973 13.4999 135.285 13.0439 135.493 12.4839C135.701 11.9079 135.805 11.2919 135.805 10.6359C135.805 9.8839 135.701 9.2279 135.493 8.6679C135.285 8.10791 134.965 7.66791 134.533 7.34791C134.117 7.0279 133.597 6.8679 132.973 6.8679C132.317 6.8679 131.773 7.0439 131.341 7.39591C130.925 7.73191 130.613 8.18791 130.405 8.7639C130.213 9.3399 130.117 9.9639 130.117 10.6359C130.117 11.3559 130.221 11.9959 130.429 12.5559C130.637 13.1159 130.949 13.5559 131.365 13.8759C131.797 14.1959 132.333 14.3559 132.973 14.3559ZM152.989 36.5799C151.021 36.5799 149.445 36.1319 148.261 35.2359C147.077 34.3399 146.221 33.2199 145.693 31.8759C145.181 30.5319 144.925 29.1639 144.925 27.7719C144.925 26.8279 145.061 25.8439 145.333 24.8199C145.621 23.7959 146.085 22.8439 146.725 21.9639C147.365 21.0679 148.197 20.3479 149.221 19.8039C150.261 19.2439 151.517 18.9639 152.989 18.9639C154.477 18.9639 155.741 19.2279 156.781 19.7559C157.821 20.2679 158.653 20.9559 159.277 21.8199C159.917 22.6839 160.381 23.6359 160.669 24.6759C160.973 25.7159 161.125 26.7479 161.125 27.7719C161.125 28.7479 160.981 29.7479 160.693 30.7719C160.421 31.7959 159.965 32.7479 159.325 33.6279C158.701 34.5079 157.869 35.2199 156.829 35.7639C155.805 36.3079 154.525 36.5799 152.989 36.5799ZM152.989 31.5399C153.645 31.5399 154.181 31.3639 154.597 31.0119C155.029 30.6599 155.349 30.1959 155.557 29.6199C155.765 29.0439 155.869 28.4279 155.869 27.7719C155.869 27.0359 155.757 26.3879 155.533 25.8279C155.325 25.2679 155.005 24.8279 154.573 24.5079C154.157 24.1719 153.629 24.0039 152.989 24.0039C152.349 24.0039 151.821 24.1799 151.405 24.5319C150.989 24.8839 150.677 25.3479 150.469 25.9239C150.261 26.4999 150.157 27.1159 150.157 27.7719C150.157 28.5079 150.261 29.1559 150.469 29.7159C150.677 30.2759 150.989 30.7239 151.405 31.0599C151.821 31.3799 152.349 31.5399 152.989 31.5399Z" fill="#3C4257"/>
<path d="M49.5939 71.1959C48.7726 71.1959 48.0472 71.0359 47.4179 70.7159C46.7992 70.3852 46.3032 69.9426 45.9299 69.3879C45.5672 68.8332 45.2952 68.2199 45.1139 67.5479C44.9326 66.8759 44.8419 66.1612 44.8419 65.4039C44.8419 64.6572 44.9379 63.9479 45.1299 63.2759C45.3219 62.5932 45.6046 61.9799 45.9779 61.4359C46.3512 60.8812 46.8472 60.4386 47.4659 60.1079C48.0952 59.7772 48.8046 59.6119 49.5939 59.6119C50.5432 59.6119 51.2899 59.7879 51.8339 60.1399C52.3886 60.4919 52.8526 60.9719 53.2259 61.5799L51.9779 62.2999C51.6792 61.8626 51.3486 61.5266 50.9859 61.2919C50.6232 61.0466 50.1592 60.9239 49.5939 60.9239C49.1139 60.9239 48.6819 61.0146 48.2979 61.1959C47.9139 61.3772 47.5992 61.6172 47.3539 61.9159C47.1086 62.2039 46.9006 62.5452 46.7299 62.9399C46.5699 63.3346 46.4526 63.7399 46.3779 64.1559C46.3139 64.5612 46.2819 64.9772 46.2819 65.4039C46.2819 66.6626 46.5592 67.7239 47.1139 68.5879C47.6686 69.4412 48.4952 69.8679 49.5939 69.8679C50.3512 69.8679 50.9592 69.6332 51.4179 69.1639C51.8766 68.6839 52.1059 68.0599 52.1059 67.2919V66.8439H50.0739V65.5639H53.5619V66.9079C53.5619 68.2626 53.1886 69.3186 52.4419 70.0759C51.7059 70.8226 50.7566 71.1959 49.5939 71.1959ZM59.2495 71.1959C58.1402 71.1959 57.2549 70.8012 56.5935 70.0119C55.9429 69.2119 55.6175 68.1772 55.6175 66.9079C55.6175 65.5746 55.9482 64.5292 56.6095 63.7719C57.2709 63.0146 58.1509 62.6359 59.2495 62.6359C60.2309 62.6359 61.0362 62.9666 61.6655 63.6279C62.3055 64.2786 62.6255 65.2439 62.6255 66.5239C62.6255 66.8226 62.6095 67.1319 62.5775 67.4519H57.0415C57.0949 68.1986 57.3242 68.8012 57.7295 69.2599C58.1455 69.7079 58.6629 69.9319 59.2815 69.9319C59.9642 69.9319 60.5509 69.6866 61.0415 69.1959L61.8895 70.1399C61.1855 70.8439 60.3055 71.1959 59.2495 71.1959ZM57.0255 66.2679H61.2175C61.2069 65.4252 61.0042 64.8172 60.6095 64.4439C60.2255 64.0599 59.7722 63.8679 59.2495 63.8679C58.6202 63.8679 58.1029 64.0706 57.6975 64.4759C57.2922 64.8706 57.0682 65.4679 57.0255 66.2679ZM66.7587 71.1959C65.6067 71.1959 65.0307 70.5452 65.0307 69.2439V64.0439H63.7027V62.8279H65.0307V60.1239L66.4227 59.4519V62.8279H68.4387V64.0439H66.4227V68.7799C66.4227 69.1426 66.4813 69.4199 66.5987 69.6119C66.716 69.8039 66.94 69.8999 67.2707 69.8999C67.6333 69.8999 68.0387 69.7559 68.4867 69.4679L68.3267 70.8279C67.8573 71.0732 67.3347 71.1959 66.7587 71.1959ZM77.8047 71.1959C76.5887 71.1959 75.65 70.7959 74.9887 69.9959C74.338 69.1852 74.0127 68.1399 74.0127 66.8599C74.0127 65.0892 74.5407 63.5319 75.5967 62.1879C76.6633 60.8439 78.1087 59.9852 79.9327 59.6119V60.8439C78.9193 61.0786 78.0127 61.5692 77.2127 62.3159C76.4233 63.0519 75.9167 63.9212 75.6927 64.9239C76.226 64.3159 77.042 64.0119 78.1407 64.0119C79.1007 64.0119 79.906 64.3532 80.5567 65.0359C81.2073 65.7186 81.5327 66.5506 81.5327 67.5319C81.5327 68.5879 81.1753 69.4626 80.4607 70.1559C79.7567 70.8492 78.8713 71.1959 77.8047 71.1959ZM77.7887 69.8839C78.482 69.8839 79.0473 69.6759 79.4847 69.2599C79.922 68.8439 80.1407 68.2946 80.1407 67.6119C80.1407 66.9186 79.922 66.3639 79.4847 65.9479C79.058 65.5212 78.4927 65.3079 77.7887 65.3079C77.0953 65.3079 76.5247 65.5212 76.0767 65.9479C75.6393 66.3639 75.4207 66.9186 75.4207 67.6119C75.4207 68.2839 75.6447 68.8332 76.0927 69.2599C76.5407 69.6759 77.106 69.8839 77.7887 69.8839ZM87.1755 71.1959C86.3435 71.1959 85.6182 71.0732 84.9995 70.8279C84.3809 70.5826 83.9115 70.2946 83.5915 69.9639L84.4235 68.8919C85.2022 69.5746 86.1142 69.9159 87.1595 69.9159C87.9489 69.9159 88.5995 69.6759 89.1115 69.1959C89.6342 68.7159 89.8955 68.1186 89.8955 67.4039C89.8955 66.6999 89.6822 66.1292 89.2555 65.6919C88.8395 65.2546 88.2902 65.0359 87.6075 65.0359C86.6475 65.0359 85.8955 65.3399 85.3515 65.9479L83.9755 65.4679L84.6315 59.8039H90.6155V61.0999H85.8475L85.4155 64.4759C86.0555 63.9639 86.8395 63.7079 87.7675 63.7079C88.8342 63.7079 89.6982 64.0546 90.3595 64.7479C91.0209 65.4412 91.3515 66.2946 91.3515 67.3079C91.3515 68.3959 90.9622 69.3186 90.1835 70.0759C89.4155 70.8226 88.4129 71.1959 87.1755 71.1959ZM95.865 65.3079C94.9904 65.3079 94.3397 65.0252 93.913 64.4599C93.497 63.8946 93.289 63.2279 93.289 62.4599C93.289 61.7239 93.5024 61.0679 93.929 60.4919C94.3557 59.9052 95.001 59.6119 95.865 59.6119C96.729 59.6119 97.369 59.8946 97.785 60.4599C98.2117 61.0146 98.425 61.6812 98.425 62.4599C98.425 62.9186 98.3504 63.3506 98.201 63.7559C98.0517 64.1612 97.7744 64.5239 97.369 64.8439C96.9637 65.1532 96.4624 65.3079 95.865 65.3079ZM96.265 71.1959H94.921L102.569 59.6119H103.913L96.265 71.1959ZM95.865 64.2039C96.3024 64.2039 96.6384 64.0386 96.873 63.7079C97.1184 63.3666 97.241 62.9506 97.241 62.4599C97.241 61.9266 97.1237 61.5052 96.889 61.1959C96.6544 60.8759 96.313 60.7159 95.865 60.7159C95.4064 60.7159 95.0597 60.8812 94.825 61.2119C94.601 61.5319 94.489 61.9479 94.489 62.4599C94.489 62.9826 94.601 63.4039 94.825 63.7239C95.0597 64.0439 95.4064 64.2039 95.865 64.2039ZM102.969 71.1959C102.105 71.1959 101.46 70.9132 101.033 70.3479C100.617 69.7826 100.409 69.1159 100.409 68.3479C100.409 67.6226 100.617 66.9666 101.033 66.3799C101.46 65.7932 102.105 65.4999 102.969 65.4999C103.844 65.4999 104.489 65.7826 104.905 66.3479C105.332 66.9026 105.545 67.5692 105.545 68.3479C105.545 68.8066 105.47 69.2386 105.321 69.6439C105.172 70.0492 104.894 70.4119 104.489 70.7319C104.084 71.0412 103.577 71.1959 102.969 71.1959ZM101.945 69.6119C102.18 69.9319 102.521 70.0919 102.969 70.0919C103.417 70.0919 103.758 69.9266 103.993 69.5959C104.228 69.2652 104.345 68.8492 104.345 68.3479C104.345 67.8146 104.228 67.3932 103.993 67.0839C103.758 66.7639 103.417 66.6039 102.969 66.6039C102.521 66.6039 102.18 66.7692 101.945 67.0999C101.71 67.4199 101.593 67.8359 101.593 68.3479C101.593 68.8706 101.71 69.2919 101.945 69.6119ZM121.441 71.0039H120.049V64.1239C120.049 63.6866 120.059 63.2759 120.081 62.8919C119.974 63.1906 119.809 63.6119 119.585 64.1559L116.513 71.1959L113.537 64.1239C113.281 63.5052 113.121 63.0999 113.057 62.9079C113.089 63.1959 113.105 63.6012 113.105 64.1239V71.0039H111.713V59.8039H113.025L116.273 67.3399L116.561 68.0919C116.603 67.9639 116.699 67.7132 116.849 67.3399L120.113 59.8039H121.441V71.0039ZM130.092 70.0599C129.442 70.8172 128.562 71.1959 127.452 71.1959C126.343 71.1959 125.463 70.8172 124.812 70.0599C124.162 69.3026 123.836 68.2572 123.836 66.9239C123.836 65.5906 124.162 64.5452 124.812 63.7879C125.463 63.0199 126.343 62.6359 127.452 62.6359C128.562 62.6359 129.442 63.0146 130.092 63.7719C130.743 64.5292 131.068 65.5746 131.068 66.9079C131.068 68.2412 130.743 69.2919 130.092 70.0599ZM125.82 69.1159C126.215 69.6386 126.759 69.8999 127.452 69.8999C128.146 69.8999 128.684 69.6386 129.068 69.1159C129.463 68.5826 129.66 67.8466 129.66 66.9079C129.66 65.9799 129.463 65.2492 129.068 64.7159C128.684 64.1826 128.146 63.9159 127.452 63.9159C126.759 63.9159 126.215 64.1826 125.82 64.7159C125.436 65.2386 125.244 65.9746 125.244 66.9239C125.244 67.8519 125.436 68.5826 125.82 69.1159ZM133.238 71.0039V62.8279H134.63V63.8999C135.014 63.0572 135.659 62.6359 136.566 62.6359C137.078 62.6359 137.499 62.7746 137.83 63.0519L137.622 64.3639C137.281 64.1292 136.891 64.0119 136.454 64.0119C135.974 64.0119 135.547 64.1986 135.174 64.5719C134.811 64.9452 134.63 65.5532 134.63 66.3959V71.0039H133.238ZM142.609 71.1959C141.5 71.1959 140.614 70.8012 139.953 70.0119C139.302 69.2119 138.977 68.1772 138.977 66.9079C138.977 65.5746 139.308 64.5292 139.969 63.7719C140.63 63.0146 141.51 62.6359 142.609 62.6359C143.59 62.6359 144.396 62.9666 145.025 63.6279C145.665 64.2786 145.985 65.2439 145.985 66.5239C145.985 66.8226 145.969 67.1319 145.937 67.4519H140.401C140.454 68.1986 140.684 68.8012 141.089 69.2599C141.505 69.7079 142.022 69.9319 142.641 69.9319C143.324 69.9319 143.91 69.6866 144.401 69.1959L145.249 70.1399C144.545 70.8439 143.665 71.1959 142.609 71.1959ZM140.385 66.2679H144.577C144.566 65.4252 144.364 64.8172 143.969 64.4439C143.585 64.0599 143.132 63.8679 142.609 63.8679C141.98 63.8679 141.462 64.0706 141.057 64.4759C140.652 64.8706 140.428 65.4679 140.385 66.2679ZM151.912 71.0039V60.1079L153.304 59.4519V71.0039H151.912ZM159.171 71.1959C158.062 71.1959 157.177 70.8012 156.515 70.0119C155.865 69.2119 155.539 68.1772 155.539 66.9079C155.539 65.5746 155.87 64.5292 156.531 63.7719C157.193 63.0146 158.073 62.6359 159.171 62.6359C160.153 62.6359 160.958 62.9666 161.587 63.6279C162.227 64.2786 162.547 65.2439 162.547 66.5239C162.547 66.8226 162.531 67.1319 162.499 67.4519H156.963C157.017 68.1986 157.246 68.8012 157.651 69.2599C158.067 69.7079 158.585 69.9319 159.203 69.9319C159.886 69.9319 160.473 69.6866 160.963 69.1959L161.811 70.1399C161.107 70.8439 160.227 71.1959 159.171 71.1959ZM156.947 66.2679H161.139C161.129 65.4252 160.926 64.8172 160.531 64.4439C160.147 64.0599 159.694 63.8679 159.171 63.8679C158.542 63.8679 158.025 64.0706 157.619 64.4759C157.214 64.8706 156.99 65.4679 156.947 66.2679ZM169.317 71.0039V70.2519C168.645 70.8812 167.871 71.1959 166.997 71.1959C166.133 71.1959 165.439 70.9612 164.917 70.4919C164.405 70.0119 164.149 69.3292 164.149 68.4439C164.149 67.5586 164.442 66.8866 165.029 66.4279C165.615 65.9692 166.341 65.7399 167.205 65.7399C167.994 65.7399 168.698 65.9159 169.317 66.2679V65.6919C169.317 65.0092 169.162 64.5346 168.853 64.2679C168.554 63.9906 168.117 63.8519 167.541 63.8519C166.719 63.8519 165.925 64.1239 165.157 64.6679L164.757 63.4999C165.631 62.9239 166.618 62.6359 167.717 62.6359C169.658 62.6359 170.629 63.6172 170.629 65.5799V71.0039H169.317ZM167.205 69.9639C168.005 69.9639 168.709 69.6066 169.317 68.8919V67.4839C168.73 67.1212 168.09 66.9399 167.397 66.9399C166.831 66.9399 166.367 67.0679 166.005 67.3239C165.642 67.5799 165.461 67.9532 165.461 68.4439C165.461 68.9026 165.61 69.2706 165.909 69.5479C166.218 69.8252 166.65 69.9639 167.205 69.9639ZM175.947 71.1959C174.912 71.1959 174.091 70.8119 173.483 70.0439C172.875 69.2759 172.571 68.2306 172.571 66.9079C172.571 65.5746 172.875 64.5292 173.483 63.7719C174.101 63.0146 174.923 62.6359 175.947 62.6359C176.747 62.6359 177.435 62.8919 178.011 63.4039V60.1079L179.403 59.4519V71.0039H178.011V70.3639C177.477 70.9186 176.789 71.1959 175.947 71.1959ZM176.139 69.8999C176.949 69.8999 177.573 69.5319 178.011 68.7959V64.9559C177.573 64.2626 176.949 63.9159 176.139 63.9159C175.445 63.9159 174.912 64.1772 174.539 64.6999C174.165 65.2119 173.979 65.9479 173.979 66.9079C173.979 67.7719 174.171 68.4866 174.555 69.0519C174.949 69.6172 175.477 69.8999 176.139 69.8999ZM184.451 71.1959C183.864 71.1959 183.304 71.0732 182.771 70.8279C182.248 70.5719 181.822 70.2359 181.491 69.8199L182.483 68.9719C183.091 69.6226 183.758 69.9479 184.483 69.9479C184.942 69.9479 185.31 69.8626 185.587 69.6919C185.864 69.5106 186.003 69.2492 186.003 68.9079C186.003 68.6519 185.902 68.4226 185.699 68.2199C185.496 68.0066 185.288 67.8519 185.075 67.7559C184.862 67.6492 184.547 67.5159 184.131 67.3559C183.299 67.0466 182.67 66.6999 182.243 66.3159C181.816 65.9319 181.603 65.4252 181.603 64.7959C181.603 64.1346 181.859 63.6119 182.371 63.2279C182.894 62.8332 183.555 62.6359 184.355 62.6359C185.496 62.6359 186.414 63.0466 187.107 63.8679L186.147 64.6679C185.646 64.1452 185.043 63.8839 184.339 63.8839C183.923 63.8839 183.592 63.9639 183.347 64.1239C183.102 64.2839 182.979 64.5079 182.979 64.7959C182.979 64.9559 183.016 65.1052 183.091 65.2439C183.176 65.3719 183.32 65.4946 183.523 65.6119C183.736 65.7292 183.902 65.8199 184.019 65.8839C184.147 65.9372 184.376 66.0279 184.707 66.1559C185.571 66.4652 186.227 66.8172 186.675 67.2119C187.134 67.6066 187.363 68.1612 187.363 68.8759C187.363 69.6012 187.102 70.1719 186.579 70.5879C186.056 70.9932 185.347 71.1959 184.451 71.1959Z" fill="#6B7B9C"/>
</svg>
