<svg width="375" height="157" viewBox="0 0 375 157" fill="none" xmlns="http://www.w3.org/2000/svg">
<g opacity="0.1" filter="url(#filter0_d_1_3396)">
<rect x="201.001" y="88" width="33" height="33" rx="16.5" fill="#00A1E0"/>
</g>
<path d="M216.178 100.44C216.662 99.9354 217.337 99.6223 218.083 99.6223C219.074 99.6223 219.939 100.175 220.4 100.996C220.801 100.817 221.244 100.718 221.71 100.718C223.499 100.718 224.949 102.18 224.949 103.985C224.949 105.789 223.499 107.251 221.71 107.251C221.496 107.252 221.282 107.23 221.072 107.188C220.666 107.912 219.893 108.401 219.006 108.401C218.634 108.401 218.283 108.315 217.97 108.162C217.559 109.13 216.601 109.808 215.484 109.808C214.321 109.808 213.33 109.072 212.949 108.04C212.783 108.075 212.611 108.094 212.434 108.094C211.049 108.094 209.927 106.96 209.927 105.56C209.927 104.623 210.431 103.804 211.18 103.366C211.026 103.011 210.94 102.619 210.94 102.207C210.94 100.598 212.247 99.2935 213.858 99.2935C214.804 99.2935 215.645 99.7433 216.178 100.44Z" fill="#00A1E0"/>
<path d="M212.102 104.746C212.093 104.77 212.106 104.775 212.109 104.78C212.137 104.8 212.166 104.815 212.195 104.832C212.348 104.913 212.492 104.937 212.644 104.937C212.952 104.937 213.143 104.773 213.143 104.509V104.504C213.143 104.26 212.927 104.171 212.725 104.107L212.698 104.099C212.545 104.049 212.414 104.006 212.414 103.906V103.9C212.414 103.814 212.491 103.751 212.61 103.751C212.743 103.751 212.9 103.795 213.002 103.851C213.002 103.851 213.031 103.87 213.042 103.841C213.048 103.826 213.1 103.688 213.105 103.673C213.111 103.656 213.101 103.645 213.09 103.638C212.974 103.568 212.814 103.52 212.649 103.52L212.618 103.52C212.336 103.52 212.139 103.69 212.139 103.934V103.939C212.139 104.197 212.356 104.28 212.56 104.338L212.592 104.349C212.741 104.394 212.868 104.433 212.868 104.538V104.543C212.868 104.638 212.785 104.709 212.651 104.709C212.599 104.709 212.434 104.708 212.254 104.595C212.233 104.582 212.22 104.573 212.204 104.563C212.195 104.558 212.173 104.548 212.163 104.577L212.102 104.746ZM216.613 104.746C216.604 104.77 216.617 104.775 216.62 104.78C216.648 104.8 216.677 104.815 216.706 104.832C216.859 104.913 217.003 104.937 217.155 104.937C217.463 104.937 217.654 104.773 217.654 104.509V104.504C217.654 104.26 217.438 104.171 217.236 104.107L217.209 104.099C217.057 104.049 216.925 104.006 216.925 103.906V103.9C216.925 103.814 217.002 103.751 217.121 103.751C217.254 103.751 217.411 103.795 217.513 103.851C217.513 103.851 217.542 103.87 217.553 103.841C217.559 103.826 217.611 103.688 217.616 103.673C217.622 103.656 217.612 103.645 217.601 103.638C217.485 103.568 217.325 103.52 217.16 103.52L217.129 103.52C216.847 103.52 216.65 103.69 216.65 103.934V103.939C216.65 104.197 216.867 104.28 217.071 104.338L217.103 104.349C217.252 104.394 217.38 104.433 217.38 104.538V104.543C217.38 104.638 217.296 104.709 217.162 104.709C217.11 104.709 216.945 104.708 216.766 104.595C216.744 104.582 216.731 104.574 216.715 104.563C216.709 104.56 216.683 104.549 216.674 104.577L216.613 104.746ZM219.693 104.229C219.693 104.378 219.665 104.495 219.61 104.579C219.556 104.661 219.474 104.701 219.36 104.701C219.246 104.701 219.164 104.661 219.111 104.579C219.057 104.496 219.029 104.378 219.029 104.229C219.029 104.08 219.057 103.963 219.111 103.88C219.164 103.799 219.246 103.76 219.36 103.76C219.474 103.76 219.556 103.799 219.611 103.88C219.665 103.963 219.693 104.08 219.693 104.229ZM219.95 103.952C219.925 103.867 219.886 103.792 219.833 103.729C219.781 103.666 219.714 103.616 219.636 103.579C219.557 103.542 219.464 103.524 219.36 103.524C219.256 103.524 219.163 103.542 219.084 103.579C219.005 103.616 218.939 103.666 218.886 103.729C218.834 103.792 218.795 103.867 218.769 103.952C218.744 104.037 218.732 104.13 218.732 104.229C218.732 104.328 218.744 104.421 218.769 104.505C218.795 104.591 218.834 104.666 218.887 104.729C218.939 104.792 219.006 104.842 219.084 104.878C219.163 104.913 219.256 104.932 219.36 104.932C219.464 104.932 219.557 104.913 219.636 104.878C219.714 104.842 219.781 104.792 219.833 104.729C219.886 104.666 219.925 104.591 219.95 104.505C219.975 104.42 219.988 104.327 219.988 104.229C219.988 104.13 219.975 104.037 219.95 103.952ZM222.062 104.661C222.054 104.636 222.03 104.645 222.03 104.645C221.992 104.66 221.952 104.673 221.91 104.68C221.867 104.686 221.82 104.69 221.769 104.69C221.644 104.69 221.546 104.653 221.475 104.579C221.404 104.506 221.364 104.388 221.364 104.228C221.365 104.082 221.4 103.972 221.463 103.889C221.526 103.806 221.621 103.763 221.748 103.763C221.855 103.763 221.935 103.776 222.02 103.802C222.02 103.802 222.041 103.811 222.05 103.785C222.073 103.722 222.089 103.677 222.113 103.609C222.12 103.589 222.103 103.581 222.097 103.579C222.064 103.565 221.985 103.544 221.926 103.535C221.87 103.527 221.805 103.522 221.733 103.522C221.625 103.522 221.528 103.541 221.446 103.577C221.364 103.614 221.294 103.665 221.239 103.727C221.184 103.79 221.142 103.866 221.114 103.951C221.086 104.036 221.072 104.129 221.072 104.228C221.072 104.441 221.129 104.614 221.243 104.74C221.357 104.867 221.528 104.931 221.751 104.931C221.883 104.931 222.018 104.904 222.115 104.866C222.115 104.866 222.134 104.857 222.126 104.835L222.062 104.661ZM222.512 104.086C222.525 104.003 222.548 103.934 222.583 103.881C222.636 103.799 222.717 103.754 222.832 103.754C222.946 103.754 223.022 103.799 223.076 103.881C223.112 103.934 223.127 104.006 223.133 104.086H222.512ZM223.378 103.904C223.357 103.821 223.302 103.738 223.267 103.7C223.211 103.64 223.156 103.598 223.102 103.574C223.031 103.544 222.946 103.524 222.852 103.524C222.744 103.524 222.645 103.542 222.565 103.579C222.485 103.617 222.417 103.669 222.364 103.732C222.311 103.796 222.272 103.872 222.246 103.958C222.221 104.044 222.208 104.138 222.208 104.236C222.208 104.337 222.221 104.43 222.248 104.514C222.274 104.599 222.317 104.674 222.374 104.736C222.431 104.798 222.505 104.847 222.593 104.881C222.68 104.915 222.787 104.932 222.909 104.932C223.16 104.931 223.293 104.875 223.347 104.845C223.357 104.839 223.366 104.83 223.355 104.803L223.298 104.644C223.289 104.62 223.265 104.629 223.265 104.629C223.203 104.652 223.114 104.693 222.908 104.693C222.773 104.693 222.672 104.653 222.61 104.591C222.545 104.527 222.514 104.433 222.508 104.301L223.379 104.302C223.379 104.302 223.402 104.301 223.404 104.279C223.405 104.27 223.434 104.1 223.378 103.904ZM215.539 104.086C215.552 104.003 215.574 103.934 215.61 103.881C215.663 103.799 215.744 103.754 215.858 103.754C215.973 103.754 216.048 103.799 216.103 103.881C216.138 103.934 216.154 104.006 216.16 104.086H215.539ZM216.405 103.904C216.383 103.821 216.329 103.738 216.294 103.7C216.238 103.64 216.183 103.598 216.129 103.574C216.058 103.544 215.972 103.524 215.879 103.524C215.771 103.524 215.672 103.542 215.592 103.579C215.511 103.617 215.444 103.669 215.391 103.732C215.338 103.796 215.298 103.872 215.273 103.958C215.248 104.044 215.235 104.138 215.235 104.236C215.235 104.337 215.248 104.43 215.275 104.514C215.301 104.599 215.343 104.674 215.401 104.736C215.458 104.798 215.532 104.847 215.62 104.881C215.707 104.915 215.814 104.932 215.936 104.932C216.187 104.931 216.32 104.875 216.374 104.845C216.384 104.839 216.393 104.83 216.382 104.803L216.325 104.644C216.316 104.62 216.292 104.629 216.292 104.629C216.23 104.652 216.141 104.693 215.934 104.693C215.799 104.693 215.699 104.653 215.637 104.591C215.572 104.527 215.541 104.433 215.535 104.301L216.406 104.302C216.406 104.302 216.429 104.301 216.431 104.279C216.432 104.27 216.461 104.1 216.405 103.904ZM213.657 104.656C213.623 104.629 213.618 104.622 213.607 104.605C213.59 104.578 213.581 104.54 213.581 104.491C213.581 104.415 213.606 104.36 213.659 104.323C213.658 104.323 213.734 104.257 213.911 104.26C214.036 104.262 214.147 104.28 214.147 104.28V104.676H214.148C214.148 104.676 214.037 104.7 213.912 104.707C213.735 104.718 213.657 104.656 213.657 104.656ZM214.004 104.044C213.968 104.042 213.923 104.04 213.868 104.04C213.793 104.04 213.721 104.05 213.653 104.068C213.585 104.086 213.524 104.115 213.471 104.152C213.419 104.19 213.376 104.239 213.345 104.296C213.314 104.353 213.299 104.421 213.299 104.496C213.299 104.574 213.312 104.64 213.339 104.695C213.365 104.75 213.403 104.796 213.452 104.831C213.501 104.867 213.56 104.893 213.63 104.908C213.698 104.924 213.775 104.932 213.86 104.932C213.949 104.932 214.038 104.924 214.125 104.91C214.21 104.895 214.315 104.874 214.344 104.867C214.364 104.862 214.385 104.857 214.405 104.852C214.426 104.846 214.425 104.823 214.425 104.823L214.424 104.027C214.424 103.852 214.378 103.723 214.286 103.643C214.194 103.563 214.06 103.522 213.886 103.522C213.821 103.522 213.716 103.531 213.653 103.544C213.653 103.544 213.462 103.581 213.384 103.642C213.384 103.642 213.367 103.653 213.376 103.676L213.438 103.842C213.446 103.864 213.467 103.856 213.467 103.856C213.467 103.856 213.473 103.854 213.481 103.849C213.648 103.758 213.86 103.761 213.86 103.761C213.954 103.761 214.027 103.78 214.076 103.817C214.123 103.853 214.147 103.908 214.147 104.024V104.061C214.072 104.051 214.004 104.044 214.004 104.044ZM221.026 103.596C221.033 103.576 221.019 103.567 221.013 103.564C220.999 103.559 220.924 103.543 220.867 103.539C220.758 103.533 220.697 103.551 220.643 103.576C220.589 103.6 220.529 103.639 220.496 103.684V103.578C220.496 103.563 220.485 103.552 220.471 103.552H220.247C220.233 103.552 220.222 103.563 220.222 103.578V104.877C220.222 104.891 220.234 104.903 220.249 104.903H220.478C220.485 104.903 220.491 104.901 220.496 104.896C220.501 104.891 220.504 104.884 220.504 104.877V104.228C220.504 104.141 220.514 104.054 220.533 103.999C220.552 103.946 220.577 103.902 220.609 103.871C220.641 103.84 220.677 103.819 220.717 103.807C220.757 103.794 220.802 103.79 220.834 103.79C220.879 103.79 220.929 103.802 220.929 103.802C220.946 103.804 220.955 103.794 220.961 103.778C220.976 103.739 221.018 103.619 221.026 103.596Z" fill="white"/>
<path d="M218.879 102.995C218.851 102.986 218.826 102.981 218.793 102.974C218.759 102.968 218.72 102.965 218.675 102.965C218.517 102.965 218.393 103.01 218.306 103.098C218.219 103.185 218.16 103.318 218.131 103.493L218.12 103.551H217.922C217.922 103.551 217.898 103.551 217.893 103.577L217.861 103.758C217.859 103.775 217.866 103.786 217.889 103.786H218.082L217.886 104.876C217.871 104.963 217.854 105.035 217.834 105.09C217.815 105.144 217.797 105.185 217.773 105.214C217.751 105.242 217.73 105.263 217.694 105.276C217.664 105.286 217.629 105.29 217.591 105.29C217.57 105.29 217.542 105.287 217.522 105.283C217.501 105.279 217.49 105.274 217.474 105.267C217.474 105.267 217.452 105.259 217.443 105.281C217.436 105.3 217.385 105.441 217.378 105.458C217.372 105.476 217.381 105.489 217.392 105.493C217.418 105.502 217.437 105.508 217.471 105.516C217.52 105.528 217.561 105.528 217.599 105.528C217.679 105.528 217.752 105.517 217.813 105.495C217.874 105.473 217.927 105.435 217.974 105.383C218.024 105.327 218.056 105.268 218.087 105.188C218.117 105.109 218.143 105.011 218.163 104.896L218.36 103.786H218.646C218.646 103.786 218.67 103.787 218.675 103.761L218.708 103.579C218.71 103.562 218.703 103.551 218.679 103.551H218.401C218.403 103.545 218.415 103.447 218.447 103.355C218.461 103.316 218.486 103.284 218.508 103.262C218.529 103.241 218.554 103.226 218.581 103.217C218.609 103.208 218.64 103.204 218.675 103.204C218.701 103.204 218.727 103.207 218.746 103.211C218.773 103.216 218.783 103.219 218.791 103.222C218.819 103.23 218.823 103.222 218.828 103.208L218.895 103.025C218.902 103.006 218.885 102.997 218.879 102.995ZM214.989 104.878C214.989 104.893 214.979 104.904 214.964 104.904H214.733C214.719 104.904 214.708 104.893 214.708 104.878V103.02C214.708 103.005 214.719 102.993 214.733 102.993H214.964C214.979 102.993 214.989 103.005 214.989 103.02V104.878Z" fill="white"/>
<g opacity="0.05" filter="url(#filter1_d_1_3396)">
<rect x="249.001" y="57" width="27.9261" height="27.9261" rx="13.9631" fill="#FF7A59"/>
</g>
<path d="M265.234 69.5183V68.2189C265.406 68.1386 265.552 68.0112 265.654 67.8515C265.756 67.6919 265.811 67.5065 265.811 67.3169V67.2871C265.811 66.7344 265.363 66.2864 264.811 66.2864H264.781C264.228 66.2864 263.78 66.7344 263.78 67.2871V67.3169C263.781 67.5065 263.836 67.6919 263.938 67.8515C264.04 68.0112 264.185 68.1386 264.357 68.2189V69.5183C263.864 69.5939 263.399 69.7985 263.01 70.1115L259.446 67.3357C259.471 67.2439 259.485 67.1496 259.486 67.0549C259.487 66.8319 259.421 66.6138 259.297 66.4281C259.174 66.2424 258.998 66.0976 258.792 66.0119C258.586 65.9262 258.359 65.9034 258.141 65.9466C257.922 65.9897 257.721 66.0968 257.563 66.2542C257.405 66.4117 257.297 66.6124 257.253 66.8311C257.209 67.0497 257.231 67.2765 257.317 67.4827C257.402 67.6888 257.546 67.8651 257.731 67.9893C257.916 68.1134 258.134 68.1799 258.357 68.1801C258.552 68.1792 258.744 68.1271 258.913 68.0291L262.422 70.7599C261.777 71.7345 261.794 73.0048 262.465 73.9616L261.398 75.0293C261.312 75.0017 261.222 74.987 261.131 74.9858C260.62 74.9863 260.206 75.4008 260.206 75.912C260.206 76.4231 260.621 76.8374 261.132 76.8376C261.643 76.8377 262.057 76.4236 262.058 75.9124C262.057 75.8218 262.042 75.732 262.014 75.6457L263.07 74.5894C264.014 75.3157 265.31 75.3783 266.319 74.7463C267.328 74.1142 267.837 72.921 267.595 71.7552C267.353 70.5893 266.412 69.697 265.234 69.5183V69.5183ZM264.797 73.7921C264.602 73.7973 264.408 73.7635 264.226 73.6924C264.044 73.6214 263.878 73.5147 263.739 73.3786C263.599 73.2424 263.488 73.0797 263.412 72.8999C263.336 72.7201 263.297 72.527 263.297 72.3318C263.297 72.1367 263.336 71.9435 263.412 71.7637C263.488 71.5839 263.599 71.4212 263.739 71.2851C263.878 71.1489 264.044 71.0422 264.226 70.9712C264.408 70.9002 264.602 70.8663 264.797 70.8715C265.583 70.8991 266.206 71.5441 266.206 72.3308C266.207 73.1173 265.584 73.763 264.798 73.7914" fill="#FF7A59"/>
<g filter="url(#filter2_d_1_3396)">
<rect x="73.4841" y="78" width="35.454" height="35.454" rx="17.727" fill="white"/>
</g>
<path d="M83.6599 100.845L86.5044 98.6655C88.0157 100.638 89.6213 101.547 91.4085 101.547C93.1862 101.547 94.7464 100.649 96.1895 98.6918L99.0746 100.818C96.9923 103.64 94.4047 105.131 91.4085 105.131C88.4218 105.131 85.8091 103.65 83.6599 100.845Z" fill="url(#paint0_linear_1_3396)"/>
<path d="M91.3992 91.3732L86.3362 95.7361L83.9958 93.0219L91.4099 86.6328L98.7655 93.0266L96.4144 95.7314L91.3992 91.3732Z" fill="url(#paint1_linear_1_3396)"/>
<g opacity="0.1" filter="url(#filter3_d_1_3396)">
<rect x="23.4841" y="43" width="27.6833" height="27.6833" rx="13.8416" fill="#55ACEE"/>
</g>
<path d="M37.2223 55.1608L37.2443 55.5231L36.878 55.4788C35.5448 55.3087 34.3801 54.7318 33.3913 53.7631L32.9078 53.2824L32.7833 53.6374C32.5196 54.4286 32.688 55.2643 33.2374 55.8263C33.5304 56.1369 33.4645 56.1813 32.9591 55.9964C32.7833 55.9373 32.6294 55.8929 32.6148 55.9151C32.5635 55.9668 32.7393 56.6398 32.8785 56.906C33.0689 57.2758 33.4572 57.6382 33.882 57.8526L34.241 58.0227L33.8161 58.0301C33.4059 58.0301 33.3913 58.0375 33.4352 58.1928C33.5817 58.6735 34.1604 59.1838 34.805 59.4056L35.2592 59.5609L34.8636 59.7976C34.2776 60.1377 33.589 60.33 32.9005 60.3448C32.5708 60.3522 32.2998 60.3818 32.2998 60.404C32.2998 60.4779 33.1935 60.8921 33.7136 61.0547C35.2738 61.5354 37.1271 61.3284 38.5189 60.5075C39.5078 59.9233 40.4967 58.7622 40.9581 57.6382C41.2072 57.0391 41.4563 55.9447 41.4563 55.4196C41.4563 55.0794 41.4782 55.035 41.8884 54.6283C42.1302 54.3917 42.3572 54.1328 42.4012 54.0589C42.4744 53.9184 42.4671 53.9184 42.0935 54.0441C41.4709 54.2659 41.383 54.2364 41.6907 53.9036C41.9177 53.6669 42.1888 53.238 42.1888 53.1123C42.1888 53.0901 42.0789 53.1271 41.9544 53.1936C41.8225 53.2676 41.5295 53.3785 41.3097 53.4451L40.9142 53.5708L40.5553 53.3268C40.3575 53.1936 40.0791 53.0457 39.9326 53.0014C39.559 52.8978 38.9877 52.9126 38.6507 53.0309C37.7351 53.3637 37.1564 54.2216 37.2223 55.1608Z" fill="#55ACEE"/>
<g opacity="0.1" filter="url(#filter4_d_1_3396)">
<rect x="335.001" y="34" width="22.6251" height="22.6251" rx="11.3126" fill="#FFA412"/>
</g>
<path d="M348.385 45.1282C347.565 45.1282 346.9 45.7933 346.9 46.6137C346.9 47.4342 347.565 48.0994 348.385 48.0994C349.206 48.0994 349.871 47.4342 349.871 46.6137C349.871 45.7933 349.206 45.1282 348.385 45.1282ZM344.525 45.1282C343.705 45.1283 343.04 45.7933 343.04 46.6137C343.04 47.4342 343.705 48.0993 344.525 48.0993C345.346 48.0993 346.011 47.4342 346.011 46.6137C346.011 45.7932 345.346 45.1282 344.525 45.1282H344.525ZM347.941 43.2712C347.941 44.0916 347.276 44.7569 346.455 44.7569C345.635 44.7569 344.97 44.0916 344.97 43.2712C344.97 42.4508 345.635 41.7856 346.455 41.7856C347.276 41.7856 347.941 42.4508 347.941 43.2712H347.941Z" fill="#FFA412"/>
<path opacity="0.05" d="M304.144 94.6564C304.144 85.5366 311.537 78.1436 320.657 78.1436C329.777 78.1436 337.17 85.5366 337.17 94.6564C337.17 103.776 329.777 111.169 320.657 111.169C311.537 111.169 304.144 103.776 304.144 94.6564Z" fill="#2681FF"/>
<path d="M318.273 93.0227C318.1 92.8373 317.829 92.8478 317.711 93.0837L314.865 98.7765C314.812 98.882 314.818 99.0072 314.88 99.1076C314.942 99.2079 315.051 99.269 315.169 99.269H319.133C319.263 99.272 319.382 99.1982 319.437 99.0808C320.292 97.3136 319.774 94.6266 318.273 93.0227Z" fill="#2681FF"/>
<path d="M320.362 87.8449C318.77 90.3672 318.875 93.1607 319.923 95.258L321.835 99.0807C321.892 99.196 322.01 99.2688 322.139 99.2688H326.103C326.221 99.2688 326.33 99.2077 326.392 99.1074C326.454 99.0071 326.46 98.8818 326.407 98.7763C326.407 98.7763 321.075 88.1096 320.94 87.8427C320.821 87.6038 320.516 87.6006 320.362 87.8449Z" fill="#2681FF"/>
<path d="M149.539 51.48L154.47 53.2164V70.5904L161.415 66.577L158.01 64.9777L155.862 59.6254L166.805 63.4738V69.0688L154.473 76.189L149.539 73.4419V51.48Z" fill="#008373"/>
<path opacity="0.07" d="M158.319 91.6697C173.692 91.6697 186.154 79.2076 186.154 63.8348C186.154 48.4621 173.692 36 158.319 36C142.946 36 130.484 48.4621 130.484 63.8348C130.484 79.2076 142.946 91.6697 158.319 91.6697Z" fill="#80A000"/>
<defs>
<filter id="filter0_d_1_3396" x="173.635" y="63.8917" width="87.7324" height="87.7324" filterUnits="userSpaceOnUse" color-interpolation-filters="sRGB">
<feFlood flood-opacity="0" result="BackgroundImageFix"/>
<feColorMatrix in="SourceAlpha" type="matrix" values="0 0 0 0 0 0 0 0 0 0 0 0 0 0 0 0 0 0 127 0" result="hardAlpha"/>
<feOffset dy="3.25788"/>
<feGaussianBlur stdDeviation="13.6831"/>
<feColorMatrix type="matrix" values="0 0 0 0 0.278431 0 0 0 0 0.32549 0 0 0 0 0.419608 0 0 0 0.1 0"/>
<feBlend mode="normal" in2="BackgroundImageFix" result="effect1_dropShadow_1_3396"/>
<feBlend mode="normal" in="SourceGraphic" in2="effect1_dropShadow_1_3396" result="shape"/>
</filter>
<filter id="filter1_d_1_3396" x="210.735" y="23.2898" width="104.457" height="104.458" filterUnits="userSpaceOnUse" color-interpolation-filters="sRGB">
<feFlood flood-opacity="0" result="BackgroundImageFix"/>
<feColorMatrix in="SourceAlpha" type="matrix" values="0 0 0 0 0 0 0 0 0 0 0 0 0 0 0 0 0 0 127 0" result="hardAlpha"/>
<feOffset dy="4.55544"/>
<feGaussianBlur stdDeviation="19.1328"/>
<feColorMatrix type="matrix" values="0 0 0 0 0.419608 0 0 0 0 0.482353 0 0 0 0 0.611765 0 0 0 0.1 0"/>
<feBlend mode="normal" in2="BackgroundImageFix" result="effect1_dropShadow_1_3396"/>
<feBlend mode="normal" in="SourceGraphic" in2="effect1_dropShadow_1_3396" result="shape"/>
</filter>
<filter id="filter2_d_1_3396" x="35.2185" y="44.2898" width="111.985" height="111.985" filterUnits="userSpaceOnUse" color-interpolation-filters="sRGB">
<feFlood flood-opacity="0" result="BackgroundImageFix"/>
<feColorMatrix in="SourceAlpha" type="matrix" values="0 0 0 0 0 0 0 0 0 0 0 0 0 0 0 0 0 0 127 0" result="hardAlpha"/>
<feOffset dy="4.55544"/>
<feGaussianBlur stdDeviation="19.1328"/>
<feColorMatrix type="matrix" values="0 0 0 0 0.278431 0 0 0 0 0.32549 0 0 0 0 0.419608 0 0 0 0.1 0"/>
<feBlend mode="normal" in2="BackgroundImageFix" result="effect1_dropShadow_1_3396"/>
<feBlend mode="normal" in="SourceGraphic" in2="effect1_dropShadow_1_3396" result="shape"/>
</filter>
<filter id="filter3_d_1_3396" x="-14.7815" y="9.28977" width="104.215" height="104.214" filterUnits="userSpaceOnUse" color-interpolation-filters="sRGB">
<feFlood flood-opacity="0" result="BackgroundImageFix"/>
<feColorMatrix in="SourceAlpha" type="matrix" values="0 0 0 0 0 0 0 0 0 0 0 0 0 0 0 0 0 0 127 0" result="hardAlpha"/>
<feOffset dy="4.55544"/>
<feGaussianBlur stdDeviation="19.1328"/>
<feColorMatrix type="matrix" values="0 0 0 0 0.419608 0 0 0 0 0.482353 0 0 0 0 0.611765 0 0 0 0.1 0"/>
<feBlend mode="normal" in2="BackgroundImageFix" result="effect1_dropShadow_1_3396"/>
<feBlend mode="normal" in="SourceGraphic" in2="effect1_dropShadow_1_3396" result="shape"/>
</filter>
<filter id="filter4_d_1_3396" x="296.735" y="0.289769" width="99.1565" height="99.1563" filterUnits="userSpaceOnUse" color-interpolation-filters="sRGB">
<feFlood flood-opacity="0" result="BackgroundImageFix"/>
<feColorMatrix in="SourceAlpha" type="matrix" values="0 0 0 0 0 0 0 0 0 0 0 0 0 0 0 0 0 0 127 0" result="hardAlpha"/>
<feOffset dy="4.55544"/>
<feGaussianBlur stdDeviation="19.1328"/>
<feColorMatrix type="matrix" values="0 0 0 0 0.419608 0 0 0 0 0.482353 0 0 0 0 0.611765 0 0 0 0.1 0"/>
<feBlend mode="normal" in2="BackgroundImageFix" result="effect1_dropShadow_1_3396"/>
<feBlend mode="normal" in="SourceGraphic" in2="effect1_dropShadow_1_3396" result="shape"/>
</filter>
<linearGradient id="paint0_linear_1_3396" x1="83.6599" y1="103.063" x2="99.0746" y2="103.063" gradientUnits="userSpaceOnUse">
<stop stop-color="#8930FD"/>
<stop offset="1" stop-color="#49CCF9"/>
</linearGradient>
<linearGradient id="paint1_linear_1_3396" x1="83.9958" y1="92.824" x2="98.7655" y2="92.824" gradientUnits="userSpaceOnUse">
<stop stop-color="#FF02F0"/>
<stop offset="1" stop-color="#FFC800"/>
</linearGradient>
</defs>
</svg>
