<svg width="245" height="213" viewBox="0 0 245 213" fill="none" xmlns="http://www.w3.org/2000/svg">
<g opacity="0.1">
<path d="M155.599 168.262L34.9654 168.262C30.5471 168.262 26.9654 164.68 26.9654 160.262L26.9654 111.912C26.9654 107.494 30.5471 103.912 34.9654 103.912L197.074 103.912C201.492 103.912 205.074 100.331 205.074 95.9124L205.074 47.4805C205.074 43.0622 201.492 39.4805 197.074 39.4805L76.4399 39.4805" stroke="#D2DBFB" stroke-width="2" stroke-linecap="round" stroke-linejoin="round"/>
<rect x="166.561" y="129.497" width="77.6598" height="77.75" rx="38.8299" fill="white" stroke="#D8DEEA"/>
<circle cx="205.532" cy="162.154" r="4.40741" fill="#4C70F0" stroke="#4C70F0" stroke-width="1.5" stroke-linecap="round" stroke-linejoin="round"/>
<path d="M205.534 169.868C200.057 169.868 195.617 174.308 195.617 179.784H215.451C215.451 174.308 211.011 169.868 205.534 169.868Z" fill="#4C70F0" stroke="#4C70F0" stroke-width="1.5" stroke-linecap="round" stroke-linejoin="round"/>
<path d="M45.5195 166.247C45.5195 178.397 55.3693 188.247 67.5195 188.247H156.891V163.747C156.891 152.977 148.16 144.247 137.391 144.247H67.5195C55.3693 144.247 45.5195 154.096 45.5195 166.247Z" fill="#F4F6FE" stroke="#D8DEEA"/>
<rect x="58.3926" y="158.997" width="33.3333" height="2.66667" rx="1.33333" fill="#22283B"/>
<rect x="58.3926" y="164.997" width="65.3333" height="2.66667" rx="1.33333" fill="#22283B"/>
<rect x="58.3926" y="170.997" width="65.3333" height="2.66667" rx="1.33333" fill="#22283B"/>
<rect x="0.519531" y="0.496582" width="77.6598" height="77.75" rx="38.8299" fill="white" stroke="#D8DEEA"/>
<circle cx="39.4914" cy="33.154" r="4.40741" fill="#4C70F0" stroke="#4C70F0" stroke-width="1.5" stroke-linecap="round" stroke-linejoin="round"/>
<path d="M39.4928 40.8677C34.016 40.8677 29.5762 45.3075 29.5762 50.7843H49.4095C49.4095 45.3075 44.9697 40.8677 39.4928 40.8677Z" fill="#4C70F0" stroke="#4C70F0" stroke-width="1.5" stroke-linecap="round" stroke-linejoin="round"/>
</g>
</svg>
