<svg width="45" height="45" viewBox="0 0 45 45" fill="none" xmlns="http://www.w3.org/2000/svg">
<rect x="0.220703" y="0.5" width="44" height="44" rx="22" fill="#5751E1"/>
<g clip-path="url(#clip0_6512_90)">
<path d="M34.9424 32.3533L30.4169 32.1933C31.1712 32.16 31.7683 32.1233 32.2083 32.0833C32.6482 32.0433 32.8682 32.0011 32.8682 31.9567C32.8682 31.8922 32.3968 31.8322 31.454 31.7767C30.5112 31.7211 29.2541 31.6767 27.6828 31.6433C26.1114 31.61 24.3987 31.5933 22.5445 31.5933C20.6903 31.5933 18.9775 31.61 17.4062 31.6433C15.8348 31.6767 14.5777 31.7211 13.6349 31.7767C12.6921 31.8322 12.2207 31.8928 12.2207 31.9583C12.2207 32.0239 12.6921 32.0845 13.6349 32.14C14.5777 32.1956 15.8348 32.24 17.4062 32.2733C18.9775 32.3067 20.706 32.3233 22.5916 32.3233C23.7858 32.3233 24.9486 32.3156 26.08 32.3C27.2114 32.2845 28.2485 32.2633 29.1913 32.2367L33.7168 32.3967C33.9053 32.4033 34.1096 32.4067 34.3296 32.4067C34.5496 32.4067 34.7538 32.4033 34.9424 32.3967C35.131 32.39 35.2252 32.3828 35.2252 32.375C35.2252 32.3672 35.131 32.36 34.9424 32.3533ZM22.5916 32.26C21.0203 32.26 19.5746 32.2467 18.2547 32.22C16.9347 32.1933 15.8977 32.1567 15.1434 32.11C14.3892 32.0633 14.012 32.0128 14.012 31.9583C14.012 31.9039 14.3892 31.8533 15.1434 31.8067C15.8977 31.76 16.9347 31.7233 18.2547 31.6967C19.5746 31.67 21.0045 31.6567 22.5445 31.6567C24.0844 31.6567 25.5143 31.67 26.8342 31.6967C28.1542 31.7233 29.1913 31.76 29.9455 31.8067C30.6998 31.8533 31.0769 31.9039 31.0769 31.9583C31.0769 32.0128 30.6998 32.0633 29.9455 32.11C29.1913 32.1567 28.1542 32.1933 26.8342 32.22C25.5143 32.2467 24.1001 32.26 22.5916 32.26Z" fill="white"/>
</g>
<defs>
<clipPath id="clip0_6512_90">
<rect width="28.2843" height="1" fill="white" transform="matrix(1 0 0 -1 12.2207 32.5)"/>
</clipPath>
</defs>
</svg>
