<svg width="60" height="61" viewBox="0 0 60 61" fill="none" xmlns="http://www.w3.org/2000/svg">
<path d="M55.2892 24.2799C54.3869 20.6588 52.6759 17.9284 49.0314 17.9284H44.3322V23.4831C44.3322 27.7956 40.676 31.4284 36.5041 31.4284H23.9885C20.5666 31.4284 17.7306 34.3581 17.7306 37.7916V49.7213C17.7306 53.1198 20.6838 55.112 23.9885 56.0846C27.9494 57.2448 31.758 57.4557 36.5041 56.0846C39.6564 55.1706 42.7619 53.3307 42.7619 49.7213V44.9518H30.258V43.3581H49.0314C52.6759 43.3581 54.0236 40.8151 55.2892 37.0065C56.6017 33.0807 56.5431 29.3073 55.2892 24.2799ZM37.2892 48.1276C38.59 48.1276 39.6447 49.194 39.6447 50.5065C39.6447 51.8307 38.59 52.8971 37.2892 52.8971C36.0002 52.8971 34.9338 51.819 34.9338 50.5065C34.9455 49.1823 36.0002 48.1276 37.2892 48.1276ZM23.4142 29.8581H35.9299C39.4103 29.8581 42.1877 26.987 42.1877 23.4948V11.5534C42.1877 8.15494 39.3283 5.61197 35.9299 5.03775C31.7345 4.34634 27.176 4.3815 23.4142 5.04947C18.1174 5.98697 17.1564 7.944 17.1564 11.5651V16.3346H29.6838V17.9284H12.4572C8.81267 17.9284 5.62517 20.1198 4.62908 24.2799C3.48064 29.0495 3.43377 32.026 4.62908 37.0065C5.5197 40.7096 7.6408 43.3581 11.2853 43.3581H15.5861V37.6393C15.5861 33.5026 19.1603 29.8581 23.4142 29.8581ZM22.6291 13.1471C21.3283 13.1471 20.2736 12.0807 20.2736 10.7682C20.2853 9.444 21.3283 8.37759 22.6291 8.37759C23.9181 8.37759 24.9845 9.45572 24.9845 10.7682C24.9845 12.0807 23.9299 13.1471 22.6291 13.1471Z" fill="#272847"/>
</svg>
