<svg width="170" height="82" viewBox="0 0 170 82" fill="none" xmlns="http://www.w3.org/2000/svg">
<mask id="mask0_1_300" style="mask-type:alpha" maskUnits="userSpaceOnUse" x="0" y="0" width="170" height="80">
<rect width="170" height="80" rx="20" fill="white"/>
<rect width="170" height="80" rx="20" stroke="#EDF0F7"/>
</mask>
<g mask="url(#mask0_1_300)">
<path d="M18.36 33V21.8H23.32C24.6107 21.8 25.544 22.12 26.12 22.76C26.7067 23.4 27 24.216 27 25.208C27 25.9013 26.8027 26.552 26.408 27.16C26.0133 27.768 25.4427 28.184 24.696 28.408L26.936 33H24.776L22.616 28.616H20.28V33H18.36ZM20.28 26.792H23.352C23.928 26.792 24.3493 26.6427 24.616 26.344C24.8827 26.0453 25.016 25.6667 25.016 25.208C25.016 24.76 24.888 24.3867 24.632 24.088C24.376 23.7787 23.9493 23.624 23.352 23.624H20.28V26.792ZM32.076 33.192C30.9133 33.192 29.9907 32.8133 29.308 32.056C28.636 31.288 28.3 30.2373 28.3 28.904C28.3 27.5813 28.6413 26.5413 29.324 25.784C30.0067 25.016 30.924 24.632 32.076 24.632C33.1213 24.632 33.9747 24.9573 34.636 25.608C35.308 26.2587 35.644 27.2133 35.644 28.472C35.644 28.9093 35.6227 29.2933 35.58 29.624H30.156C30.188 30.2 30.3853 30.664 30.748 31.016C31.1213 31.368 31.564 31.544 32.076 31.544C32.8013 31.544 33.3773 31.2613 33.804 30.696L34.988 31.912C34.2733 32.7653 33.3027 33.192 32.076 33.192ZM30.172 28.072H33.788C33.7453 27.4853 33.564 27.0427 33.244 26.744C32.924 26.4347 32.5347 26.28 32.076 26.28C31.5427 26.28 31.1 26.4293 30.748 26.728C30.4067 27.016 30.2147 27.464 30.172 28.072ZM40.1365 33.192C39.4752 33.192 38.8512 33.064 38.2645 32.808C37.6885 32.552 37.2512 32.2107 36.9525 31.784L38.2325 30.696C38.8085 31.272 39.4432 31.56 40.1365 31.56C41.0218 31.56 41.4645 31.2933 41.4645 30.76C41.4645 30.5787 41.3845 30.4133 41.2245 30.264C41.0752 30.1147 40.9098 30.0027 40.7285 29.928C40.5578 29.8427 40.2752 29.72 39.8805 29.56C38.9418 29.2507 38.2538 28.8987 37.8165 28.504C37.3898 28.0987 37.1765 27.5653 37.1765 26.904C37.1765 26.1893 37.4485 25.6347 37.9925 25.24C38.5472 24.8347 39.2458 24.632 40.0885 24.632C41.3258 24.632 42.3018 25.0533 43.0165 25.896L41.7205 26.952C41.2405 26.4933 40.6965 26.264 40.0885 26.264C39.3525 26.264 38.9845 26.488 38.9845 26.936C38.9845 27.16 39.1178 27.352 39.3845 27.512C39.6618 27.672 40.0618 27.8373 40.5845 28.008C41.4698 28.3067 42.1365 28.6587 42.5845 29.064C43.0432 29.4693 43.2725 30.0347 43.2725 30.76C43.2725 31.5387 42.9898 32.1413 42.4245 32.568C41.8592 32.984 41.0965 33.192 40.1365 33.192ZM49.0061 33.192C48.2168 33.192 47.5981 32.9093 47.1501 32.344V35.352L45.2781 36.216V24.824H47.1501V25.448C47.5981 24.904 48.2221 24.632 49.0221 24.632C50.0568 24.632 50.8728 25.0107 51.4701 25.768C52.0781 26.5147 52.3821 27.5653 52.3821 28.92C52.3821 30.2427 52.0728 31.288 51.4541 32.056C50.8355 32.8133 50.0195 33.192 49.0061 33.192ZM48.7341 31.4C49.2995 31.4 49.7368 31.1867 50.0461 30.76C50.3555 30.3333 50.5101 29.72 50.5101 28.92C50.5101 28.1627 50.3555 27.5547 50.0461 27.096C49.7368 26.6373 49.2995 26.408 48.7341 26.408C48.0408 26.408 47.5128 26.6747 47.1501 27.208V30.6C47.5235 31.1333 48.0515 31.4 48.7341 31.4ZM57.7315 33.192C56.5795 33.192 55.6675 32.8133 54.9955 32.056C54.3235 31.2987 53.9875 30.2533 53.9875 28.92C53.9875 27.5867 54.3235 26.5413 54.9955 25.784C55.6675 25.016 56.5795 24.632 57.7315 24.632C58.8835 24.632 59.7955 25.016 60.4675 25.784C61.1502 26.5413 61.4915 27.5867 61.4915 28.92C61.4915 30.2533 61.1555 31.2987 60.4835 32.056C59.8115 32.8133 58.8942 33.192 57.7315 33.192ZM57.7315 31.4C58.3182 31.4 58.7768 31.1813 59.1075 30.744C59.4488 30.3067 59.6195 29.6987 59.6195 28.92C59.6195 28.1413 59.4488 27.528 59.1075 27.08C58.7768 26.632 58.3182 26.408 57.7315 26.408C57.1662 26.408 56.7128 26.6373 56.3715 27.096C56.0302 27.544 55.8595 28.152 55.8595 28.92C55.8595 29.688 56.0248 30.296 56.3555 30.744C56.6968 31.1813 57.1555 31.4 57.7315 31.4ZM68.5529 33V28.312C68.5529 27.0427 68.0462 26.408 67.0329 26.408C65.9235 26.408 65.3689 27.032 65.3689 28.28V33H63.4969V24.824H65.3689V25.592C65.9022 24.952 66.6222 24.632 67.5289 24.632C68.3822 24.632 69.0755 24.8987 69.6089 25.432C70.1529 25.9653 70.4249 26.8133 70.4249 27.976V33H68.5529ZM75.3709 33.192C74.7095 33.192 74.0855 33.064 73.4989 32.808C72.9229 32.552 72.4855 32.2107 72.1869 31.784L73.4669 30.696C74.0429 31.272 74.6775 31.56 75.3709 31.56C76.2562 31.56 76.6989 31.2933 76.6989 30.76C76.6989 30.5787 76.6189 30.4133 76.4589 30.264C76.3095 30.1147 76.1442 30.0027 75.9629 29.928C75.7922 29.8427 75.5095 29.72 75.1149 29.56C74.1762 29.2507 73.4882 28.8987 73.0509 28.504C72.6242 28.0987 72.4109 27.5653 72.4109 26.904C72.4109 26.1893 72.6829 25.6347 73.2269 25.24C73.7815 24.8347 74.4802 24.632 75.3229 24.632C76.5602 24.632 77.5362 25.0533 78.2509 25.896L76.9549 26.952C76.4749 26.4933 75.9309 26.264 75.3229 26.264C74.5869 26.264 74.2189 26.488 74.2189 26.936C74.2189 27.16 74.3522 27.352 74.6189 27.512C74.8962 27.672 75.2962 27.8373 75.8189 28.008C76.7042 28.3067 77.3709 28.6587 77.8189 29.064C78.2775 29.4693 78.5069 30.0347 78.5069 30.76C78.5069 31.5387 78.2242 32.1413 77.6589 32.568C77.0935 32.984 76.3309 33.192 75.3709 33.192ZM83.8416 33.192C82.679 33.192 81.7563 32.8133 81.0736 32.056C80.4016 31.288 80.0656 30.2373 80.0656 28.904C80.0656 27.5813 80.407 26.5413 81.0896 25.784C81.7723 25.016 82.6896 24.632 83.8416 24.632C84.887 24.632 85.7403 24.9573 86.4016 25.608C87.0736 26.2587 87.4096 27.2133 87.4096 28.472C87.4096 28.9093 87.3883 29.2933 87.3456 29.624H81.9216C81.9536 30.2 82.151 30.664 82.5136 31.016C82.887 31.368 83.3296 31.544 83.8416 31.544C84.567 31.544 85.143 31.2613 85.5696 30.696L86.7536 31.912C86.039 32.7653 85.0683 33.192 83.8416 33.192ZM81.9376 28.072H85.5536C85.511 27.4853 85.3296 27.0427 85.0096 26.744C84.6896 26.4347 84.3003 26.28 83.8416 26.28C83.3083 26.28 82.8656 26.4293 82.5136 26.728C82.1723 27.016 81.9803 27.464 81.9376 28.072Z" fill="#4C70F0"/>
<path d="M21.944 51.192C20.92 51.192 20.0347 50.936 19.288 50.424C18.552 49.9013 18.0293 49.192 17.72 48.296L19.496 47.64C19.7307 48.1627 20.0667 48.584 20.504 48.904C20.9413 49.2133 21.4427 49.368 22.008 49.368C22.5947 49.368 23.0587 49.2347 23.4 48.968C23.752 48.7013 23.928 48.3173 23.928 47.816C23.928 47.6133 23.88 47.4267 23.784 47.256C23.688 47.0747 23.576 46.9253 23.448 46.808C23.3307 46.6907 23.1493 46.5733 22.904 46.456C22.6587 46.3387 22.4507 46.248 22.28 46.184C22.1093 46.1093 21.8587 46.0187 21.528 45.912C21.1013 45.7627 20.7707 45.6453 20.536 45.56C20.312 45.4747 20.0187 45.336 19.656 45.144C19.304 44.9413 19.032 44.7387 18.84 44.536C18.6587 44.3333 18.4933 44.0667 18.344 43.736C18.2053 43.3947 18.136 43.0213 18.136 42.616C18.136 41.7627 18.4667 41.048 19.128 40.472C19.7893 39.896 20.6853 39.608 21.816 39.608C22.7547 39.608 23.5333 39.832 24.152 40.28C24.7707 40.7173 25.1867 41.2933 25.4 42.008L23.672 42.584C23.3307 41.816 22.6693 41.432 21.688 41.432C21.1867 41.432 20.792 41.5387 20.504 41.752C20.2267 41.9547 20.088 42.248 20.088 42.632C20.088 42.888 20.1947 43.1173 20.408 43.32C20.632 43.5227 20.8667 43.6773 21.112 43.784C21.368 43.88 21.7413 44.008 22.232 44.168C22.552 44.2853 22.792 44.376 22.952 44.44C23.1227 44.4933 23.3573 44.5893 23.656 44.728C23.9547 44.8667 24.1893 44.9947 24.36 45.112C24.5307 45.2187 24.7227 45.368 24.936 45.56C25.16 45.752 25.3307 45.9547 25.448 46.168C25.5653 46.3707 25.6667 46.616 25.752 46.904C25.8373 47.1813 25.88 47.4853 25.88 47.816C25.88 48.8613 25.5067 49.688 24.76 50.296C24.024 50.8933 23.0853 51.192 21.944 51.192ZM30.3656 51.192C29.0963 51.192 28.4616 50.4933 28.4616 49.096V44.456H27.2456V42.824H28.4616V40.344L30.3336 39.448V42.824H32.2216V44.456H30.3336V48.728C30.3336 49.2507 30.563 49.512 31.0216 49.512C31.4376 49.512 31.8643 49.3893 32.3016 49.144L32.0776 50.824C31.6083 51.0693 31.0376 51.192 30.3656 51.192ZM38.6685 51V50.344C38.1245 50.9093 37.3992 51.192 36.4925 51.192C35.6178 51.192 34.9032 50.9573 34.3485 50.488C33.8045 50.008 33.5325 49.336 33.5325 48.472C33.5325 47.5867 33.8418 46.9147 34.4605 46.456C35.0898 45.9973 35.8472 45.768 36.7325 45.768C37.5112 45.768 38.1565 45.912 38.6685 46.2V45.768C38.6685 45.2453 38.5352 44.8667 38.2685 44.632C38.0125 44.3973 37.6125 44.28 37.0685 44.28C36.1832 44.28 35.3725 44.536 34.6365 45.048L34.0605 43.528C34.9458 42.9307 36.0125 42.632 37.2605 42.632C37.6872 42.632 38.0605 42.6693 38.3805 42.744C38.7112 42.808 39.0472 42.9413 39.3885 43.144C39.7405 43.3467 40.0125 43.6667 40.2045 44.104C40.3965 44.5413 40.4925 45.0853 40.4925 45.736V51H38.6685ZM36.8445 49.544C37.5592 49.544 38.1672 49.2827 38.6685 48.76V47.704C38.1992 47.48 37.6552 47.368 37.0365 47.368C36.5352 47.368 36.1298 47.4587 35.8205 47.64C35.5112 47.8213 35.3565 48.0987 35.3565 48.472C35.3565 48.8027 35.4845 49.064 35.7405 49.256C35.9965 49.448 36.3645 49.544 36.8445 49.544ZM45.1313 51.192C43.8619 51.192 43.2273 50.4933 43.2273 49.096V44.456H42.0113V42.824H43.2273V40.344L45.0993 39.448V42.824H46.9873V44.456H45.0993V48.728C45.0993 49.2507 45.3286 49.512 45.7873 49.512C46.2033 49.512 46.6299 49.3893 47.0673 49.144L46.8433 50.824C46.3739 51.0693 45.8033 51.192 45.1313 51.192ZM51.4803 51.192C50.8189 51.192 50.1949 51.064 49.6083 50.808C49.0323 50.552 48.5949 50.2107 48.2963 49.784L49.5763 48.696C50.1523 49.272 50.7869 49.56 51.4803 49.56C52.3656 49.56 52.8083 49.2933 52.8083 48.76C52.8083 48.5787 52.7283 48.4133 52.5683 48.264C52.4189 48.1147 52.2536 48.0027 52.0723 47.928C51.9016 47.8427 51.6189 47.72 51.2243 47.56C50.2856 47.2507 49.5976 46.8987 49.1603 46.504C48.7336 46.0987 48.5203 45.5653 48.5203 44.904C48.5203 44.1893 48.7923 43.6347 49.3363 43.24C49.8909 42.8347 50.5896 42.632 51.4323 42.632C52.6696 42.632 53.6456 43.0533 54.3603 43.896L53.0643 44.952C52.5843 44.4933 52.0403 44.264 51.4323 44.264C50.6963 44.264 50.3283 44.488 50.3283 44.936C50.3283 45.16 50.4616 45.352 50.7283 45.512C51.0056 45.672 51.4056 45.8373 51.9283 46.008C52.8136 46.3067 53.4803 46.6587 53.9283 47.064C54.3869 47.4693 54.6163 48.0347 54.6163 48.76C54.6163 49.5387 54.3336 50.1413 53.7683 50.568C53.2029 50.984 52.4403 51.192 51.4803 51.192Z" fill="#2D3157"/>
<path d="M52.7169 75.1846L55.1025 72.3687C57.7098 69.2911 61.5392 67.5165 65.5729 67.5165H77.0909C79.9767 67.5165 82.8266 66.876 85.4349 65.6413L88.5858 64.1498C89.1194 63.8972 89.7024 63.7662 90.2928 63.7662H91.3019C92.6003 63.7662 93.7213 62.8567 93.989 61.5862C94.2567 60.3156 95.3777 59.4062 96.6762 59.4062H96.9408C97.9663 59.4062 98.9241 58.8945 99.4943 58.0422L101.28 55.3731C102.966 52.8529 105.799 51.3401 108.831 51.3401H130.887C133.518 51.3401 135.977 50.033 137.448 47.8521C138.92 45.6712 141.379 44.3641 144.01 44.3641H147.468C153.319 44.3641 158.591 40.8266 160.81 35.4128L170 13V81.2063H55.5075C53.4875 81.2063 51.85 79.5687 51.85 77.5488C51.85 76.6829 52.1572 75.8452 52.7169 75.1846Z" fill="#4C70F0"/>
<path d="M52.7169 75.1846L55.1025 72.3687C57.7098 69.2911 61.5392 67.5165 65.5729 67.5165H77.0909C79.9767 67.5165 82.8266 66.876 85.4349 65.6413L88.5858 64.1498C89.1194 63.8972 89.7024 63.7662 90.2928 63.7662H91.3019C92.6003 63.7662 93.7213 62.8567 93.989 61.5862C94.2567 60.3156 95.3777 59.4062 96.6762 59.4062H96.9408C97.9663 59.4062 98.9241 58.8945 99.4943 58.0422L101.28 55.3731C102.966 52.8529 105.799 51.3401 108.831 51.3401H130.887C133.518 51.3401 135.977 50.033 137.448 47.8521C138.92 45.6712 141.379 44.3641 144.01 44.3641H147.468C153.319 44.3641 158.591 40.8266 160.81 35.4128L170 13V81.2063H55.5075C53.4875 81.2063 51.85 79.5687 51.85 77.5488C51.85 76.6829 52.1572 75.8452 52.7169 75.1846Z" fill="url(#paint0_linear_1_300)"/>
<path d="M51.8523 75.9938V75.9938C56.5242 70.5101 63.3658 67.3509 70.5698 67.3509H77.0962C79.9803 67.3509 82.8287 66.713 85.4372 65.4828L88.5892 63.9963C89.1222 63.7449 89.7041 63.6146 90.2934 63.6146H91.3121C92.6062 63.6146 93.7236 62.7087 93.9914 61.4427V61.4427C94.2591 60.1766 95.3765 59.2708 96.6706 59.2708H96.9444C97.9693 59.2708 98.9269 58.7604 99.4983 57.9095L101.282 55.2528C102.969 52.7413 105.795 51.2347 108.821 51.2347H130.9C133.525 51.2347 135.979 49.933 137.451 47.7597V47.7597C138.923 45.5864 141.377 44.2846 144.002 44.2846H147.434C153.301 44.2846 158.579 40.7215 160.773 35.2806L169.152 14.5" stroke="#4C70F0" stroke-width="1.5" stroke-linecap="round" stroke-linejoin="round"/>
<path d="M107.439 69.072C107.175 69.072 106.935 69.03 106.719 68.946C106.507 68.862 106.331 68.75 106.191 68.61C106.051 68.466 105.933 68.3 105.837 68.112C105.745 67.924 105.677 67.73 105.633 67.53C105.593 67.326 105.573 67.116 105.573 66.9C105.573 66.684 105.593 66.476 105.633 66.276C105.677 66.072 105.745 65.876 105.837 65.688C105.933 65.5 106.051 65.336 106.191 65.196C106.331 65.052 106.507 64.938 106.719 64.854C106.935 64.77 107.175 64.728 107.439 64.728C107.763 64.728 108.049 64.792 108.297 64.92C108.545 65.044 108.739 65.214 108.879 65.43C109.019 65.642 109.123 65.872 109.191 66.12C109.263 66.368 109.299 66.628 109.299 66.9C109.299 67.172 109.263 67.432 109.191 67.68C109.123 67.928 109.019 68.16 108.879 68.376C108.739 68.588 108.545 68.758 108.297 68.886C108.049 69.01 107.763 69.072 107.439 69.072ZM107.439 68.19C107.647 68.19 107.823 68.12 107.967 67.98C108.111 67.836 108.211 67.672 108.267 67.488C108.323 67.3 108.351 67.104 108.351 66.9C108.351 66.684 108.325 66.484 108.273 66.3C108.221 66.112 108.123 65.95 107.979 65.814C107.835 65.674 107.655 65.604 107.439 65.604C107.223 65.604 107.041 65.676 106.893 65.82C106.749 65.96 106.651 66.124 106.599 66.312C106.547 66.496 106.521 66.692 106.521 66.9C106.521 67.056 106.537 67.206 106.569 67.35C106.601 67.494 106.651 67.632 106.719 67.764C106.787 67.892 106.883 67.996 107.007 68.076C107.131 68.152 107.275 68.19 107.439 68.19ZM111.232 69.072C110.796 69.072 110.448 68.93 110.188 68.646C109.928 68.362 109.798 67.97 109.798 67.47C109.798 66.978 109.928 66.588 110.188 66.3C110.452 66.008 110.8 65.862 111.232 65.862C111.928 65.862 112.376 66.182 112.576 66.822L111.748 67.092C111.648 66.828 111.48 66.696 111.244 66.696C111.08 66.696 110.944 66.768 110.836 66.912C110.732 67.056 110.68 67.242 110.68 67.47C110.68 67.698 110.732 67.884 110.836 68.028C110.94 68.168 111.072 68.238 111.232 68.238C111.484 68.238 111.656 68.09 111.748 67.794L112.582 68.034C112.378 68.726 111.928 69.072 111.232 69.072ZM114.241 69.072C113.725 69.072 113.467 68.792 113.467 68.232V66.696H113.047V65.934H113.467V65.082L114.331 64.668V65.934H114.997V66.696H114.331V68.148C114.331 68.204 114.347 68.248 114.379 68.28C114.415 68.308 114.457 68.322 114.505 68.322C114.681 68.322 114.857 68.282 115.033 68.202L114.937 68.934C114.749 69.026 114.517 69.072 114.241 69.072ZM117.188 69C117.188 68.588 117.254 68.224 117.386 67.908C117.518 67.592 117.684 67.338 117.884 67.146C118.084 66.954 118.332 66.776 118.628 66.612C118.8 66.52 118.932 66.428 119.024 66.336C119.12 66.244 119.168 66.134 119.168 66.006C119.168 65.73 119.02 65.592 118.724 65.592C118.436 65.592 118.218 65.732 118.07 66.012L117.254 65.646C117.382 65.362 117.576 65.138 117.836 64.974C118.1 64.81 118.386 64.728 118.694 64.728C119.118 64.728 119.452 64.846 119.696 65.082C119.944 65.318 120.068 65.614 120.068 65.97C120.068 66.302 119.994 66.564 119.846 66.756C119.702 66.948 119.48 67.13 119.18 67.302C118.888 67.478 118.678 67.622 118.55 67.734C118.422 67.842 118.324 67.972 118.256 68.124H120.104V69H117.188ZM122.494 69.072C122.254 69.072 122.04 69.03 121.852 68.946C121.668 68.858 121.518 68.744 121.402 68.604C121.286 68.464 121.19 68.298 121.114 68.106C121.042 67.914 120.99 67.72 120.958 67.524C120.93 67.328 120.916 67.12 120.916 66.9C120.916 66.612 120.942 66.346 120.994 66.102C121.046 65.858 121.13 65.63 121.246 65.418C121.362 65.202 121.526 65.034 121.738 64.914C121.95 64.79 122.202 64.728 122.494 64.728C122.79 64.728 123.044 64.79 123.256 64.914C123.468 65.038 123.63 65.208 123.742 65.424C123.858 65.636 123.94 65.864 123.988 66.108C124.04 66.352 124.066 66.616 124.066 66.9C124.066 67.184 124.04 67.45 123.988 67.698C123.936 67.942 123.852 68.17 123.736 68.382C123.624 68.594 123.462 68.762 123.25 68.886C123.038 69.01 122.786 69.072 122.494 69.072ZM122.494 68.208C122.73 68.208 122.9 68.086 123.004 67.842C123.112 67.594 123.166 67.28 123.166 66.9C123.166 66.66 123.146 66.448 123.106 66.264C123.07 66.076 122.998 65.918 122.89 65.79C122.786 65.658 122.654 65.592 122.494 65.592C122.258 65.592 122.086 65.716 121.978 65.964C121.87 66.208 121.816 66.52 121.816 66.9C121.816 67.136 121.836 67.348 121.876 67.536C121.916 67.72 121.988 67.878 122.092 68.01C122.196 68.142 122.33 68.208 122.494 68.208ZM125.296 69V65.976H124.678V65.232C125.106 65.232 125.368 65.088 125.464 64.8H126.208V69H125.296ZM127.924 69.072V68.226C128.676 68.218 129.156 67.894 129.364 67.254C129.188 67.378 128.972 67.44 128.716 67.44C128.284 67.44 127.934 67.32 127.666 67.08C127.398 66.84 127.264 66.506 127.264 66.078C127.264 65.666 127.408 65.338 127.696 65.094C127.984 64.85 128.358 64.728 128.818 64.728C129.346 64.728 129.742 64.876 130.006 65.172C130.27 65.464 130.402 65.858 130.402 66.354C130.402 67.198 130.196 67.858 129.784 68.334C129.372 68.81 128.752 69.056 127.924 69.072ZM128.812 66.594C128.996 66.594 129.142 66.55 129.25 66.462C129.358 66.374 129.412 66.244 129.412 66.072C129.412 65.916 129.356 65.79 129.244 65.694C129.136 65.598 128.994 65.55 128.818 65.55C128.61 65.55 128.448 65.598 128.332 65.694C128.216 65.786 128.158 65.91 128.158 66.066C128.158 66.238 128.214 66.37 128.326 66.462C128.442 66.55 128.604 66.594 128.812 66.594Z" fill="#6B7B9C"/>
<circle cx="118" cy="51" r="8.25" fill="white" stroke="#4C70F0" stroke-width="1.5"/>
<path d="M115.781 53H115.026V50.9346L115.034 50.5952L115.046 50.2241C114.921 50.3494 114.833 50.4316 114.785 50.4707L114.375 50.8003L114.011 50.3462L115.161 49.4307H115.781V53ZM119.267 53H116.772V52.4751L117.668 51.5693C117.933 51.2975 118.107 51.1095 118.188 51.0054C118.269 50.8996 118.328 50.8019 118.364 50.7124C118.4 50.6229 118.417 50.5301 118.417 50.4341C118.417 50.2909 118.378 50.1842 118.298 50.1143C118.22 50.0443 118.115 50.0093 117.983 50.0093C117.845 50.0093 117.71 50.041 117.58 50.1045C117.45 50.168 117.314 50.2583 117.172 50.3755L116.762 49.8896C116.938 49.7399 117.084 49.6341 117.199 49.5723C117.315 49.5104 117.441 49.4632 117.578 49.4307C117.714 49.3965 117.867 49.3794 118.037 49.3794C118.26 49.3794 118.457 49.4201 118.627 49.5015C118.798 49.5828 118.931 49.6968 119.025 49.8433C119.12 49.9897 119.167 50.1574 119.167 50.3462C119.167 50.5106 119.138 50.6652 119.079 50.8101C119.022 50.9533 118.933 51.1006 118.811 51.252C118.69 51.4033 118.477 51.619 118.171 51.8989L117.712 52.3311V52.3652H119.267V53ZM119.604 51.4839C119.604 50.7775 119.753 50.2518 120.051 49.9067C120.35 49.5617 120.798 49.3892 121.394 49.3892C121.597 49.3892 121.757 49.4014 121.872 49.4258V50.0288C121.727 49.9963 121.584 49.98 121.442 49.98C121.184 49.98 120.972 50.019 120.808 50.0972C120.645 50.1753 120.523 50.2909 120.441 50.4438C120.36 50.5968 120.312 50.8141 120.297 51.0957H120.329C120.49 50.819 120.748 50.6807 121.103 50.6807C121.422 50.6807 121.672 50.7808 121.853 50.981C122.033 51.1812 122.124 51.4578 122.124 51.811C122.124 52.1919 122.016 52.4938 121.801 52.7168C121.586 52.9382 121.289 53.0488 120.908 53.0488C120.644 53.0488 120.414 52.9878 120.217 52.8657C120.021 52.7437 119.87 52.5654 119.763 52.3311C119.657 52.0967 119.604 51.8143 119.604 51.4839ZM120.893 52.4458C121.054 52.4458 121.178 52.3921 121.264 52.2847C121.35 52.1756 121.394 52.021 121.394 51.8208C121.394 51.6466 121.353 51.5099 121.271 51.4106C121.192 51.3097 121.07 51.2593 120.908 51.2593C120.755 51.2593 120.624 51.3089 120.515 51.4082C120.407 51.5075 120.354 51.623 120.354 51.7549C120.354 51.9486 120.404 52.1121 120.505 52.2456C120.607 52.3791 120.737 52.4458 120.893 52.4458Z" fill="#2D3157"/>
</g>
<defs>
<linearGradient id="paint0_linear_1_300" x1="110.868" y1="48.0701" x2="111.695" y2="83.5903" gradientUnits="userSpaceOnUse">
<stop offset="0.0749064" stop-color="white" stop-opacity="0.8"/>
<stop offset="1" stop-color="white"/>
</linearGradient>
</defs>
</svg>
