<svg width="350" height="381" viewBox="0 0 350 381" fill="none" xmlns="http://www.w3.org/2000/svg">
<mask id="path-1-inside-1_1_1567" fill="white">
<path fill-rule="evenodd" clip-rule="evenodd" d="M12.0001 0.0180664C5.3727 0.0180664 0.00012207 5.39067 0.00012207 12.0181V354.686C0.00012207 361.314 5.37271 366.686 12.0001 366.686H21.4425L28.6925 378.646C29.8603 380.572 32.6555 380.572 33.8234 378.646L41.0734 366.686H338C344.628 366.686 350 361.314 350 354.686V12.0181C350 5.39065 344.628 0.0180664 338 0.0180664H12.0001Z"/>
</mask>
<path fill-rule="evenodd" clip-rule="evenodd" d="M12.0001 0.0180664C5.3727 0.0180664 0.00012207 5.39067 0.00012207 12.0181V354.686C0.00012207 361.314 5.37271 366.686 12.0001 366.686H21.4425L28.6925 378.646C29.8603 380.572 32.6555 380.572 33.8234 378.646L41.0734 366.686H338C344.628 366.686 350 361.314 350 354.686V12.0181C350 5.39065 344.628 0.0180664 338 0.0180664H12.0001Z" fill="white"/>
<path d="M21.4425 366.686L22.2976 366.168L22.0057 365.686H21.4425V366.686ZM28.6925 378.646L29.5477 378.128H29.5477L28.6925 378.646ZM33.8234 378.646L32.9682 378.128L33.8234 378.646ZM41.0734 366.686V365.686H40.5102L40.2183 366.168L41.0734 366.686ZM1.00012 12.0181C1.00012 5.94295 5.92499 1.01807 12.0001 1.01807V-0.981934C4.82042 -0.981934 -0.999878 4.83839 -0.999878 12.0181H1.00012ZM1.00012 354.686V12.0181H-0.999878V354.686H1.00012ZM12.0001 365.686C5.92499 365.686 1.00012 360.762 1.00012 354.686H-0.999878C-0.999878 361.866 4.82042 367.686 12.0001 367.686V365.686ZM21.4425 365.686H12.0001V367.686H21.4425V365.686ZM29.5477 378.128L22.2976 366.168L20.5873 367.205L27.8374 379.164L29.5477 378.128ZM32.9682 378.128C32.1897 379.412 30.3262 379.412 29.5477 378.128L27.8374 379.164C29.3945 381.733 33.1214 381.733 34.6785 379.164L32.9682 378.128ZM40.2183 366.168L32.9682 378.128L34.6785 379.164L41.9285 367.205L40.2183 366.168ZM338 365.686H41.0734V367.686H338V365.686ZM349 354.686C349 360.762 344.075 365.686 338 365.686V367.686C345.18 367.686 351 361.866 351 354.686H349ZM349 12.0181V354.686H351V12.0181H349ZM338 1.01807C344.075 1.01807 349 5.94294 349 12.0181H351C351 4.83837 345.18 -0.981934 338 -0.981934V1.01807ZM12.0001 1.01807H338V-0.981934H12.0001V1.01807Z" fill="#4C70F0" mask="url(#path-1-inside-1_1_1567)"/>
</svg>
