<svg width="50" height="51" viewBox="0 0 50 51" fill="none" xmlns="http://www.w3.org/2000/svg">
<path d="M37.3732 27.0239C37.3536 23.4399 38.9747 20.7349 42.256 18.7427C40.42 16.1157 37.6466 14.6704 33.9845 14.3872C30.5177 14.1138 26.7286 16.4087 25.3419 16.4087C23.8771 16.4087 20.5177 14.4849 17.881 14.4849C12.4318 14.5728 6.64075 18.8306 6.64075 27.4927C6.64075 30.0513 7.1095 32.6945 8.047 35.4224C9.297 39.0063 13.8087 47.7954 18.5157 47.6489C20.9767 47.5903 22.715 45.9009 25.9181 45.9009C29.0236 45.9009 30.6349 47.6489 33.379 47.6489C38.1251 47.5806 42.2072 39.5923 43.3986 35.9985C37.0314 33.0005 37.3732 27.2095 37.3732 27.0239ZM31.8458 10.9888C34.5118 7.82471 34.2677 4.94385 34.1896 3.90869C31.8361 4.04541 29.1115 5.51025 27.5587 7.31689C25.8497 9.25049 24.8439 11.6431 25.0587 14.3384C27.6075 14.5337 29.9318 13.2251 31.8458 10.9888Z" fill="#272847"/>
</svg>
