<svg width="160" height="40" viewBox="0 0 160 40" fill="none" xmlns="http://www.w3.org/2000/svg">
<g clip-path="url(#clip0_1_294)">
<path d="M18.5 25.0002C23.6086 25.0002 27.75 20.3913 27.75 14.706V3.3335H9.25V14.706C9.25 20.3913 13.3914 25.0002 18.5 25.0002Z" stroke="#4C70F0" stroke-width="2" stroke-linejoin="round"/>
<path opacity="0.5" fill-rule="evenodd" clip-rule="evenodd" d="M9.24998 17.5003V9.16699H3.08331C3.08331 14.7225 6.16665 17.5003 9.24998 17.5003Z" stroke="#4C70F0" stroke-width="2" stroke-linecap="round" stroke-linejoin="round"/>
<path opacity="0.5" fill-rule="evenodd" clip-rule="evenodd" d="M27.75 17.5003V9.16699H33.9167C33.9167 14.7225 30.8333 17.5003 27.75 17.5003Z" stroke="#4C70F0" stroke-width="2" stroke-linecap="round" stroke-linejoin="round"/>
<path opacity="0.5" d="M18.5 26.667V30.0003" stroke="#4C70F0" stroke-width="2" stroke-linecap="round" stroke-linejoin="round"/>
<path d="M11.5625 35L14.4069 30H22.3869L25.4375 35H11.5625Z" stroke="#4C70F0" stroke-width="2" stroke-linejoin="round"/>
</g>
<path d="M60.736 25L59.84 22.424H55.312L54.4 25H52.672L56.72 13.8H58.432L62.464 25H60.736ZM59.328 20.952L57.968 17.144C57.776 16.6213 57.648 16.2 57.584 15.88C57.488 16.264 57.36 16.6853 57.2 17.144L55.824 20.952H59.328ZM65.3923 25L63.2163 16.824H64.8483L66.0003 21.912C66.0749 22.232 66.1283 22.5093 66.1603 22.744C66.1923 22.5413 66.2509 22.264 66.3363 21.912L67.6963 16.824H69.2323L70.5923 21.912C70.6776 22.264 70.7363 22.5413 70.7683 22.744C70.8003 22.5093 70.8536 22.232 70.9283 21.912L72.0803 16.824H73.7123L71.5363 25H70.0643L68.7043 20.248C68.5763 19.8107 68.4909 19.4693 68.4483 19.224C68.3949 19.5653 68.3149 19.912 68.2083 20.264L66.8643 25H65.3923ZM79.9814 25V24.296C79.4054 24.8933 78.6587 25.192 77.7414 25.192C76.8774 25.192 76.1734 24.9573 75.6294 24.488C75.096 24.008 74.8294 23.3307 74.8294 22.456C74.8294 21.5707 75.1334 20.8987 75.7414 20.44C76.3494 19.9813 77.0907 19.752 77.9654 19.752C78.7654 19.752 79.4374 19.912 79.9814 20.232V19.784C79.9814 19.176 79.8427 18.744 79.5654 18.488C79.288 18.232 78.8454 18.104 78.2374 18.104C77.3414 18.104 76.5627 18.3493 75.9014 18.84L75.4054 17.48C76.2267 16.9147 77.2454 16.632 78.4614 16.632C78.8667 16.632 79.2294 16.6693 79.5494 16.744C79.8694 16.808 80.1947 16.9413 80.5254 17.144C80.856 17.336 81.112 17.6507 81.2934 18.088C81.4854 18.5253 81.5814 19.064 81.5814 19.704V25H79.9814ZM78.0454 23.72C78.8134 23.72 79.4587 23.4267 79.9814 22.84V21.592C79.48 21.3253 78.8987 21.192 78.2374 21.192C77.704 21.192 77.2667 21.2987 76.9254 21.512C76.5947 21.7147 76.4294 22.0293 76.4294 22.456C76.4294 22.8507 76.568 23.16 76.8454 23.384C77.1227 23.608 77.5227 23.72 78.0454 23.72ZM83.825 25V16.824H85.489V17.816C85.8517 17.0267 86.4597 16.632 87.313 16.632C87.8463 16.632 88.305 16.7973 88.689 17.128L88.449 18.664C88.0543 18.3973 87.6223 18.264 87.153 18.264C86.705 18.264 86.3157 18.4347 85.985 18.776C85.6543 19.1067 85.489 19.6507 85.489 20.408V25H83.825ZM93.1764 25.192C92.1417 25.192 91.315 24.8133 90.6964 24.056C90.0884 23.288 89.7844 22.2373 89.7844 20.904C89.7844 19.5813 90.0937 18.5413 90.7124 17.784C91.3417 17.016 92.163 16.632 93.1764 16.632C93.9764 16.632 94.6217 16.888 95.1124 17.4V14.216L96.7764 13.448V25H95.1124V24.424C94.6537 24.936 94.0084 25.192 93.1764 25.192ZM93.4164 23.624C94.163 23.624 94.7284 23.3147 95.1124 22.696V19.096C94.963 18.8507 94.739 18.6427 94.4404 18.472C94.1524 18.2907 93.811 18.2 93.4164 18.2C92.787 18.2 92.3017 18.4347 91.9604 18.904C91.619 19.3733 91.4484 20.04 91.4484 20.904C91.4484 21.7147 91.6244 22.3707 91.9764 22.872C92.3284 23.3733 92.8084 23.624 93.4164 23.624Z" fill="#4C70F0"/>
<path d="M104.549 25L102.373 16.824H104.005L105.157 21.912C105.231 22.232 105.285 22.5093 105.317 22.744C105.349 22.5413 105.407 22.264 105.493 21.912L106.853 16.824H108.389L109.749 21.912C109.834 22.264 109.893 22.5413 109.925 22.744C109.957 22.5093 110.01 22.232 110.085 21.912L111.237 16.824H112.869L110.693 25H109.221L107.861 20.248C107.733 19.8107 107.647 19.4693 107.605 19.224C107.551 19.5653 107.471 19.912 107.365 20.264L106.021 25H104.549ZM116.174 15.256C115.982 15.448 115.747 15.544 115.47 15.544C115.193 15.544 114.953 15.448 114.75 15.256C114.558 15.0533 114.462 14.8133 114.462 14.536C114.462 14.2587 114.558 14.024 114.75 13.832C114.953 13.6293 115.193 13.528 115.47 13.528C115.747 13.528 115.982 13.6293 116.174 13.832C116.377 14.024 116.478 14.2587 116.478 14.536C116.478 14.8133 116.377 15.0533 116.174 15.256ZM114.638 25V16.824H116.302V25H114.638ZM123.772 25V20.12C123.772 19.4693 123.622 18.9893 123.324 18.68C123.025 18.36 122.63 18.2 122.14 18.2C120.966 18.2 120.38 18.8293 120.38 20.088V25H118.716V16.824H120.38V17.608C120.892 16.9573 121.596 16.632 122.492 16.632C124.454 16.632 125.436 17.7947 125.436 20.12V25H123.772ZM132.819 25V20.12C132.819 19.4693 132.669 18.9893 132.371 18.68C132.072 18.36 131.677 18.2 131.187 18.2C130.013 18.2 129.427 18.8293 129.427 20.088V25H127.763V16.824H129.427V17.608C129.939 16.9573 130.643 16.632 131.539 16.632C133.501 16.632 134.483 17.7947 134.483 20.12V25H132.819ZM138.361 15.256C138.169 15.448 137.935 15.544 137.657 15.544C137.38 15.544 137.14 15.448 136.937 15.256C136.745 15.0533 136.649 14.8133 136.649 14.536C136.649 14.2587 136.745 14.024 136.937 13.832C137.14 13.6293 137.38 13.528 137.657 13.528C137.935 13.528 138.169 13.6293 138.361 13.832C138.564 14.024 138.665 14.2587 138.665 14.536C138.665 14.8133 138.564 15.0533 138.361 15.256ZM136.825 25V16.824H138.489V25H136.825ZM145.959 25V20.12C145.959 19.4693 145.81 18.9893 145.511 18.68C145.212 18.36 144.818 18.2 144.327 18.2C143.154 18.2 142.567 18.8293 142.567 20.088V25H140.903V16.824H142.567V17.608C143.079 16.9573 143.783 16.632 144.679 16.632C146.642 16.632 147.623 17.7947 147.623 20.12V25H145.959ZM152.686 28.2L151.854 26.92C152.985 26.856 153.769 26.664 154.206 26.344C154.654 26.0347 154.878 25.608 154.878 25.064V24.344C154.419 24.9093 153.763 25.192 152.91 25.192C151.929 25.192 151.123 24.824 150.494 24.088C149.865 23.3413 149.55 22.28 149.55 20.904C149.55 19.5813 149.859 18.5413 150.478 17.784C151.107 17.016 151.929 16.632 152.942 16.632C153.742 16.632 154.387 16.888 154.878 17.4V16.824H156.542V24.472C156.542 25.7307 156.227 26.6427 155.598 27.208C154.969 27.7733 153.998 28.104 152.686 28.2ZM153.214 23.624C153.939 23.624 154.494 23.304 154.878 22.664V19.128C154.707 18.8507 154.467 18.6267 154.158 18.456C153.859 18.2853 153.545 18.2 153.214 18.2C152.563 18.2 152.067 18.4347 151.726 18.904C151.385 19.3627 151.214 20.0293 151.214 20.904C151.214 21.736 151.39 22.3973 151.742 22.888C152.105 23.3787 152.595 23.624 153.214 23.624Z" fill="#47536B"/>
<defs>
<clipPath id="clip0_1_294">
<rect width="37" height="40" fill="white"/>
</clipPath>
</defs>
</svg>
