<svg width="246" height="440" viewBox="0 0 246 440" fill="none" xmlns="http://www.w3.org/2000/svg">
<g opacity="0.1">
<path d="M-144.297 435.925H221.169" stroke="white" stroke-width="7" stroke-miterlimit="10" stroke-linecap="round"/>
<path d="M185.397 435.919V269.902" stroke="white" stroke-width="7" stroke-miterlimit="10" stroke-linecap="round"/>
<path d="M39.0088 221.491C39.0088 248.008 17.1039 271.066 -9.41259 271.066C-35.9291 271.066 -57.834 249.161 -57.834 221.491" stroke="white" stroke-width="7" stroke-miterlimit="10" stroke-linecap="round"/>
<path d="M136.986 221.491C136.986 248.008 115.081 271.066 88.5645 271.066C62.048 271.066 38.9902 248.008 38.9902 221.491" stroke="white" stroke-width="7" stroke-miterlimit="10" stroke-linecap="round"/>
<path d="M234.999 221.491C234.999 248.008 213.094 271.066 186.578 271.066C160.061 271.066 138.156 249.161 138.156 221.491" stroke="white" stroke-width="7" stroke-miterlimit="10" stroke-linecap="round"/>
<path d="M-98.1844 67H176.203" stroke="white" stroke-width="7" stroke-miterlimit="10" stroke-linecap="round"/>
<path d="M-107.426 95.8232H186.561L234.983 191.513H-157L-107.426 95.8232Z" stroke="white" stroke-width="7" stroke-miterlimit="10" stroke-linecap="round" stroke-linejoin="round"/>
<path opacity="0.5" d="M157.746 163.847L140.453 126.955" stroke="white" stroke-width="7" stroke-linecap="round" stroke-linejoin="round"/>
<path opacity="0.5" d="M109.337 163.847L92.0434 126.955" stroke="white" stroke-width="7" stroke-linecap="round" stroke-linejoin="round"/>
<path opacity="0.5" d="M40.1611 126.955V163.847" stroke="white" stroke-width="7" stroke-linecap="round" stroke-linejoin="round"/>
<path opacity="0.5" d="M45.9258 336.776L73.5772 309.106" stroke="white" stroke-width="7" stroke-linecap="round" stroke-linejoin="round"/>
<path opacity="0.5" d="M108.162 382.893L136.984 355.223" stroke="white" stroke-width="7" stroke-linecap="round" stroke-linejoin="round"/>
<path d="M62.049 377.127L128.917 309.106" stroke="white" stroke-width="7" stroke-linecap="round" stroke-linejoin="round"/>
</g>
</svg>
