<svg width="256" height="65" viewBox="0 0 256 65" fill="none" xmlns="http://www.w3.org/2000/svg">
<path d="M31.3135 31.0029V5.80293H47.5855V9.87093H35.6335V15.9549H43.2655V20.0229H35.6335V31.0029H31.3135ZM46.7668 31.0029V12.6069H50.9788V14.5149C51.7228 12.9549 52.9828 12.1749 54.7588 12.1749C56.0548 12.1749 57.1948 12.5949 58.1788 13.4349L57.5668 17.2869C56.6548 16.6389 55.6108 16.3149 54.4348 16.3149C53.4748 16.3149 52.6588 16.6509 51.9868 17.3229C51.3148 17.9949 50.9788 19.1229 50.9788 20.7069V31.0029H46.7668ZM66.9769 31.4349C64.3609 31.4349 62.2849 30.5829 60.7489 28.8789C59.2369 27.1509 58.4809 24.7869 58.4809 21.7869C58.4809 18.8109 59.2489 16.4709 60.7849 14.7669C62.3209 13.0389 64.3849 12.1749 66.9769 12.1749C69.3289 12.1749 71.2489 12.9069 72.7369 14.3709C74.2489 15.8349 75.0049 17.9829 75.0049 20.8149C75.0049 21.7989 74.9569 22.6629 74.8609 23.4069H62.6569C62.7289 24.7029 63.1729 25.7469 63.9889 26.5389C64.8289 27.3309 65.8249 27.7269 66.9769 27.7269C68.6089 27.7269 69.9049 27.0909 70.8649 25.8189L73.5289 28.5549C71.9209 30.4749 69.7369 31.4349 66.9769 31.4349ZM62.6929 19.9149H70.8289C70.7329 18.5949 70.3249 17.5989 69.6049 16.9269C68.8849 16.2309 68.0089 15.8829 66.9769 15.8829C65.7769 15.8829 64.7809 16.2189 63.9889 16.8909C63.2209 17.5389 62.7889 18.5469 62.6929 19.9149ZM85.1105 31.4349C82.4945 31.4349 80.4185 30.5829 78.8825 28.8789C77.3705 27.1509 76.6145 24.7869 76.6145 21.7869C76.6145 18.8109 77.3825 16.4709 78.9185 14.7669C80.4545 13.0389 82.5185 12.1749 85.1105 12.1749C87.4625 12.1749 89.3825 12.9069 90.8705 14.3709C92.3825 15.8349 93.1385 17.9829 93.1385 20.8149C93.1385 21.7989 93.0905 22.6629 92.9945 23.4069H80.7905C80.8625 24.7029 81.3065 25.7469 82.1225 26.5389C82.9625 27.3309 83.9585 27.7269 85.1105 27.7269C86.7425 27.7269 88.0385 27.0909 88.9985 25.8189L91.6625 28.5549C90.0545 30.4749 87.8705 31.4349 85.1105 31.4349ZM80.8265 19.9149H88.9625C88.8665 18.5949 88.4585 17.5989 87.7385 16.9269C87.0185 16.2309 86.1425 15.8829 85.1105 15.8829C83.9105 15.8829 82.9145 16.2189 82.1225 16.8909C81.3545 17.5389 80.9225 18.5469 80.8265 19.9149Z" fill="#4C70F0"/>
<path d="M119.808 31.0029L117.828 25.4949H107.856L105.876 31.0029H101.304L110.7 5.80293H114.984L124.344 31.0029H119.808ZM116.46 21.6069L113.688 14.0469C113.328 13.1349 113.052 12.2829 112.86 11.4909C112.668 12.1869 112.392 13.0389 112.032 14.0469L109.224 21.6069H116.46ZM133.528 31.4349C131.008 31.4349 129.004 30.5829 127.516 28.8789C126.052 27.1749 125.32 24.8229 125.32 21.8229C125.32 18.8229 126.052 16.4709 127.516 14.7669C129.004 13.0389 131.008 12.1749 133.528 12.1749C137.32 12.1749 139.756 13.8669 140.836 17.2509L136.84 18.5829C136.24 16.9989 135.184 16.2069 133.672 16.2069C132.4 16.2069 131.404 16.7109 130.684 17.7189C129.964 18.7269 129.604 20.0949 129.604 21.8229C129.604 23.5269 129.952 24.8829 130.648 25.8909C131.368 26.8749 132.328 27.3669 133.528 27.3669C135.232 27.3669 136.348 26.4789 136.876 24.7029L140.908 25.9269C139.852 29.5989 137.392 31.4349 133.528 31.4349ZM150.818 31.4349C148.298 31.4349 146.294 30.5829 144.806 28.8789C143.342 27.1749 142.61 24.8229 142.61 21.8229C142.61 18.8229 143.342 16.4709 144.806 14.7669C146.294 13.0389 148.298 12.1749 150.818 12.1749C154.61 12.1749 157.046 13.8669 158.126 17.2509L154.13 18.5829C153.53 16.9989 152.474 16.2069 150.962 16.2069C149.69 16.2069 148.694 16.7109 147.974 17.7189C147.254 18.7269 146.894 20.0949 146.894 21.8229C146.894 23.5269 147.242 24.8829 147.938 25.8909C148.658 26.8749 149.618 27.3669 150.818 27.3669C152.522 27.3669 153.638 26.4789 154.166 24.7029L158.198 25.9269C157.142 29.5989 154.682 31.4349 150.818 31.4349ZM168.324 31.4349C165.732 31.4349 163.68 30.5829 162.168 28.8789C160.656 27.1749 159.9 24.8229 159.9 21.8229C159.9 18.8229 160.656 16.4709 162.168 14.7669C163.68 13.0389 165.732 12.1749 168.324 12.1749C170.916 12.1749 172.968 13.0389 174.48 14.7669C176.016 16.4709 176.784 18.8229 176.784 21.8229C176.784 24.8229 176.028 27.1749 174.516 28.8789C173.004 30.5829 170.94 31.4349 168.324 31.4349ZM168.324 27.4029C169.644 27.4029 170.676 26.9109 171.42 25.9269C172.188 24.9429 172.572 23.5749 172.572 21.8229C172.572 20.0709 172.188 18.6909 171.42 17.6829C170.676 16.6749 169.644 16.1709 168.324 16.1709C167.052 16.1709 166.032 16.6869 165.264 17.7189C164.496 18.7269 164.112 20.0949 164.112 21.8229C164.112 23.5509 164.484 24.9189 165.228 25.9269C165.996 26.9109 167.028 27.4029 168.324 27.4029ZM190.692 31.0029V29.2389C189.54 30.7029 187.932 31.4349 185.868 31.4349C183.948 31.4349 182.376 30.8349 181.152 29.6349C179.928 28.4109 179.316 26.4909 179.316 23.8749V12.6069H183.528V23.1189C183.528 25.9749 184.68 27.4029 186.984 27.4029C189.456 27.4029 190.692 25.9989 190.692 23.1909V12.6069H194.904V31.0029H190.692ZM209.884 31.0029V20.4549C209.884 17.5989 208.744 16.1709 206.464 16.1709C203.968 16.1709 202.72 17.5749 202.72 20.3829V31.0029H198.508V12.6069H202.72V14.3349C203.92 12.8949 205.54 12.1749 207.58 12.1749C209.5 12.1749 211.06 12.7749 212.26 13.9749C213.484 15.1749 214.096 17.0829 214.096 19.6989V31.0029H209.884ZM222.921 31.4349C220.065 31.4349 218.637 29.8629 218.637 26.7189V16.2789H215.901V12.6069H218.637V7.02693L222.849 5.01093V12.6069H227.097V16.2789H222.849V25.8909C222.849 27.0669 223.365 27.6549 224.397 27.6549C225.333 27.6549 226.293 27.3789 227.277 26.8269L226.773 30.6069C225.717 31.1589 224.433 31.4349 222.921 31.4349Z" fill="#2D3157"/>
<path d="M7.92722 59.1949C7.11655 59.1949 6.40189 59.0296 5.78322 58.6989C5.16455 58.3683 4.67922 57.9203 4.32722 57.3549C3.97522 56.7896 3.71389 56.1763 3.54322 55.5149C3.37255 54.8536 3.28722 54.1496 3.28722 53.4029C3.28722 52.6669 3.37255 51.9683 3.54322 51.3069C3.72455 50.6349 3.99122 50.0216 4.34322 49.4669C4.70589 48.9016 5.19122 48.4536 5.79922 48.1229C6.41789 47.7816 7.12722 47.6109 7.92722 47.6109C9.67655 47.6109 10.8819 48.2829 11.5432 49.6269L10.2952 50.2669C9.99655 49.8189 9.66589 49.4829 9.30322 49.2589C8.95122 49.0243 8.49255 48.9069 7.92722 48.9069C7.16989 48.9069 6.54055 49.1469 6.03922 49.6269C5.53789 50.1069 5.19122 50.6723 4.99922 51.3229C4.81789 51.9629 4.72722 52.6563 4.72722 53.4029C4.72722 54.6296 4.99922 55.6856 5.54322 56.5709C6.08722 57.4456 6.88189 57.8829 7.92722 57.8829C8.97255 57.8829 9.78322 57.4083 10.3592 56.4589L11.6392 56.9389C11.3299 57.6216 10.8659 58.1709 10.2472 58.5869C9.62855 58.9923 8.85522 59.1949 7.92722 59.1949ZM13.8866 59.0029V50.8269H15.2786V51.8989C15.6626 51.0563 16.3079 50.6349 17.2146 50.6349C17.7266 50.6349 18.1479 50.7736 18.4786 51.0509L18.2706 52.3629C17.9293 52.1283 17.5399 52.0109 17.1026 52.0109C16.6226 52.0109 16.1959 52.1976 15.8226 52.5709C15.4599 52.9443 15.2786 53.5523 15.2786 54.3949V59.0029H13.8866ZM23.2573 59.1949C22.148 59.1949 21.2627 58.8003 20.6013 58.0109C19.9507 57.2109 19.6253 56.1763 19.6253 54.9069C19.6253 53.5736 19.956 52.5283 20.6173 51.7709C21.2787 51.0136 22.1587 50.6349 23.2573 50.6349C24.2387 50.6349 25.044 50.9656 25.6733 51.6269C26.3133 52.2776 26.6333 53.2429 26.6333 54.5229C26.6333 54.8216 26.6173 55.1309 26.5853 55.4509H21.0493C21.1027 56.1976 21.332 56.8003 21.7373 57.2589C22.1533 57.7069 22.6707 57.9309 23.2893 57.9309C23.972 57.9309 24.5587 57.6856 25.0493 57.1949L25.8973 58.1389C25.1933 58.8429 24.3133 59.1949 23.2573 59.1949ZM21.0333 54.2669H25.2253C25.2147 53.4243 25.012 52.8163 24.6173 52.4429C24.2333 52.0589 23.78 51.8669 23.2573 51.8669C22.628 51.8669 22.1107 52.0696 21.7053 52.4749C21.3 52.8696 21.076 53.4669 21.0333 54.2669ZM33.4027 59.0029V58.2509C32.7307 58.8803 31.9574 59.1949 31.0827 59.1949C30.2187 59.1949 29.5254 58.9603 29.0027 58.4909C28.4907 58.0109 28.2347 57.3283 28.2347 56.4429C28.2347 55.5576 28.5281 54.8856 29.1147 54.4269C29.7014 53.9683 30.4267 53.7389 31.2907 53.7389C32.0801 53.7389 32.7841 53.9149 33.4027 54.2669V53.6909C33.4027 53.0083 33.2481 52.5336 32.9387 52.2669C32.6401 51.9896 32.2027 51.8509 31.6267 51.8509C30.8054 51.8509 30.0107 52.1229 29.2427 52.6669L28.8427 51.4989C29.7174 50.9229 30.7041 50.6349 31.8027 50.6349C33.7441 50.6349 34.7147 51.6163 34.7147 53.5789V59.0029H33.4027ZM31.2907 57.9629C32.0907 57.9629 32.7947 57.6056 33.4027 56.8909V55.4829C32.8161 55.1203 32.1761 54.9389 31.4827 54.9389C30.9174 54.9389 30.4534 55.0669 30.0907 55.3229C29.7281 55.5789 29.5467 55.9523 29.5467 56.4429C29.5467 56.9016 29.6961 57.2696 29.9947 57.5469C30.3041 57.8243 30.7361 57.9629 31.2907 57.9629ZM39.3446 59.1949C38.1926 59.1949 37.6166 58.5443 37.6166 57.2429V52.0429H36.2886V50.8269H37.6166V48.1229L39.0086 47.4509V50.8269H41.0246V52.0429H39.0086V56.7789C39.0086 57.1416 39.0673 57.4189 39.1846 57.6109C39.3019 57.8029 39.5259 57.8989 39.8566 57.8989C40.2193 57.8989 40.6246 57.7549 41.0726 57.4669L40.9126 58.8269C40.4433 59.0723 39.9206 59.1949 39.3446 59.1949ZM46.1167 59.1949C45.0074 59.1949 44.1221 58.8003 43.4607 58.0109C42.8101 57.2109 42.4847 56.1763 42.4847 54.9069C42.4847 53.5736 42.8154 52.5283 43.4767 51.7709C44.1381 51.0136 45.0181 50.6349 46.1167 50.6349C47.0981 50.6349 47.9034 50.9656 48.5327 51.6269C49.1727 52.2776 49.4927 53.2429 49.4927 54.5229C49.4927 54.8216 49.4767 55.1309 49.4447 55.4509H43.9087C43.9621 56.1976 44.1914 56.8003 44.5967 57.2589C45.0127 57.7069 45.5301 57.9309 46.1487 57.9309C46.8314 57.9309 47.4181 57.6856 47.9087 57.1949L48.7567 58.1389C48.0527 58.8429 47.1727 59.1949 46.1167 59.1949ZM43.8927 54.2669H48.0847C48.0741 53.4243 47.8714 52.8163 47.4767 52.4429C47.0927 52.0589 46.6394 51.8669 46.1167 51.8669C45.4874 51.8669 44.9701 52.0696 44.5647 52.4749C44.1594 52.8696 43.9354 53.4669 43.8927 54.2669ZM55.5797 59.0029V47.8029H62.3157V49.1149H56.9717V52.5549H60.5077V53.8669H56.9717V59.0029H55.5797ZM63.1522 59.0029V50.8269H64.5442V51.8989C64.9282 51.0563 65.5736 50.6349 66.4802 50.6349C66.9922 50.6349 67.4136 50.7736 67.7442 51.0509L67.5362 52.3629C67.1949 52.1283 66.8056 52.0109 66.3682 52.0109C65.8882 52.0109 65.4616 52.1976 65.0882 52.5709C64.7256 52.9443 64.5442 53.5523 64.5442 54.3949V59.0029H63.1522ZM72.523 59.1949C71.4136 59.1949 70.5283 58.8003 69.867 58.0109C69.2163 57.2109 68.891 56.1763 68.891 54.9069C68.891 53.5736 69.2216 52.5283 69.883 51.7709C70.5443 51.0136 71.4243 50.6349 72.523 50.6349C73.5043 50.6349 74.3096 50.9656 74.939 51.6269C75.579 52.2776 75.899 53.2429 75.899 54.5229C75.899 54.8216 75.883 55.1309 75.851 55.4509H70.315C70.3683 56.1976 70.5976 56.8003 71.003 57.2589C71.419 57.7069 71.9363 57.9309 72.555 57.9309C73.2376 57.9309 73.8243 57.6856 74.315 57.1949L75.163 58.1389C74.459 58.8429 73.579 59.1949 72.523 59.1949ZM70.299 54.2669H74.491C74.4803 53.4243 74.2776 52.8163 73.883 52.4429C73.499 52.0589 73.0456 51.8669 72.523 51.8669C71.8936 51.8669 71.3763 52.0696 70.971 52.4749C70.5656 52.8696 70.3416 53.4669 70.299 54.2669ZM81.1323 59.1949C80.023 59.1949 79.1377 58.8003 78.4763 58.0109C77.8257 57.2109 77.5003 56.1763 77.5003 54.9069C77.5003 53.5736 77.831 52.5283 78.4923 51.7709C79.1537 51.0136 80.0337 50.6349 81.1323 50.6349C82.1137 50.6349 82.919 50.9656 83.5483 51.6269C84.1883 52.2776 84.5083 53.2429 84.5083 54.5229C84.5083 54.8216 84.4923 55.1309 84.4603 55.4509H78.9243C78.9777 56.1976 79.207 56.8003 79.6123 57.2589C80.0283 57.7069 80.5457 57.9309 81.1643 57.9309C81.847 57.9309 82.4337 57.6856 82.9243 57.1949L83.7723 58.1389C83.0683 58.8429 82.1883 59.1949 81.1323 59.1949ZM78.9083 54.2669H83.1003C83.0897 53.4243 82.887 52.8163 82.4923 52.4429C82.1083 52.0589 81.655 51.8669 81.1323 51.8669C80.503 51.8669 79.9857 52.0696 79.5803 52.4749C79.175 52.8696 78.951 53.4669 78.9083 54.2669ZM97.0107 59.0029L96.0507 56.2669H91.6027L90.6587 59.0029H89.2027L93.1707 47.8029H94.4667L98.4347 59.0029H97.0107ZM95.6187 55.0349L94.1787 50.8909C93.9974 50.3683 93.8801 49.9896 93.8267 49.7549C93.7094 50.1709 93.5921 50.5496 93.4747 50.8909L92.0187 55.0349H95.6187ZM103.408 59.1949C102.363 59.1949 101.536 58.8216 100.928 58.0749C100.32 57.3176 100.016 56.2669 100.016 54.9229C100.016 53.5789 100.32 52.5283 100.928 51.7709C101.547 51.0136 102.395 50.6349 103.472 50.6349C104.923 50.6349 105.877 51.2696 106.336 52.5389L105.024 53.0189C104.747 52.2936 104.235 51.9309 103.488 51.9309C102.805 51.9309 102.293 52.1923 101.952 52.7149C101.611 53.2376 101.44 53.9736 101.44 54.9229C101.44 55.8616 101.611 56.5923 101.952 57.1149C102.293 57.6269 102.789 57.8829 103.44 57.8829C104.293 57.8829 104.848 57.4776 105.104 56.6669L106.4 57.0989C106.197 57.7709 105.835 58.2883 105.312 58.6509C104.8 59.0136 104.165 59.1949 103.408 59.1949ZM111.408 59.1949C110.363 59.1949 109.536 58.8216 108.928 58.0749C108.32 57.3176 108.016 56.2669 108.016 54.9229C108.016 53.5789 108.32 52.5283 108.928 51.7709C109.547 51.0136 110.395 50.6349 111.472 50.6349C112.923 50.6349 113.877 51.2696 114.336 52.5389L113.024 53.0189C112.747 52.2936 112.235 51.9309 111.488 51.9309C110.805 51.9309 110.293 52.1923 109.952 52.7149C109.611 53.2376 109.44 53.9736 109.44 54.9229C109.44 55.8616 109.611 56.5923 109.952 57.1149C110.293 57.6269 110.789 57.8829 111.44 57.8829C112.293 57.8829 112.848 57.4776 113.104 56.6669L114.4 57.0989C114.197 57.7709 113.835 58.2883 113.312 58.6509C112.8 59.0136 112.165 59.1949 111.408 59.1949ZM122.272 58.0589C121.621 58.8163 120.741 59.1949 119.632 59.1949C118.523 59.1949 117.643 58.8163 116.992 58.0589C116.341 57.3016 116.016 56.2563 116.016 54.9229C116.016 53.5896 116.341 52.5443 116.992 51.7869C117.643 51.0189 118.523 50.6349 119.632 50.6349C120.741 50.6349 121.621 51.0136 122.272 51.7709C122.923 52.5283 123.248 53.5736 123.248 54.9069C123.248 56.2403 122.923 57.2909 122.272 58.0589ZM118 57.1149C118.395 57.6376 118.939 57.8989 119.632 57.8989C120.325 57.8989 120.864 57.6376 121.248 57.1149C121.643 56.5816 121.84 55.8456 121.84 54.9069C121.84 53.9789 121.643 53.2483 121.248 52.7149C120.864 52.1816 120.325 51.9149 119.632 51.9149C118.939 51.9149 118.395 52.1816 118 52.7149C117.616 53.2376 117.424 53.9736 117.424 54.9229C117.424 55.8509 117.616 56.5816 118 57.1149ZM130.378 59.0029V58.2189C129.877 58.8696 129.189 59.1949 128.314 59.1949C127.322 59.1949 126.575 58.9069 126.074 58.3309C125.583 57.7549 125.338 56.8269 125.338 55.5469V50.8269H126.73V55.7549C126.73 56.4909 126.885 57.0349 127.194 57.3869C127.514 57.7283 127.946 57.8989 128.49 57.8989C129.749 57.8989 130.378 57.1949 130.378 55.7869V50.8269H131.77V59.0029H130.378ZM139.473 59.0029V54.0589C139.473 53.3229 139.313 52.7843 138.993 52.4429C138.684 52.0909 138.257 51.9149 137.713 51.9149C136.455 51.9149 135.825 52.6189 135.825 54.0269V59.0029H134.433V50.8269H135.825V51.6589C136.327 50.9763 137.031 50.6349 137.937 50.6349C138.897 50.6349 139.623 50.9283 140.113 51.5149C140.615 52.0909 140.865 53.0189 140.865 54.2989V59.0029H139.473ZM145.657 59.1949C144.505 59.1949 143.929 58.5443 143.929 57.2429V52.0429H142.601V50.8269H143.929V48.1229L145.321 47.4509V50.8269H147.337V52.0429H145.321V56.7789C145.321 57.1416 145.38 57.4189 145.497 57.6109C145.614 57.8029 145.838 57.8989 146.169 57.8989C146.532 57.8989 146.937 57.7549 147.385 57.4669L147.225 58.8269C146.756 59.0723 146.233 59.1949 145.657 59.1949ZM155.055 52.0429V59.0029H153.663V52.0429H152.399V50.8269H153.663V49.4669C153.663 48.8056 153.834 48.3309 154.175 48.0429C154.516 47.7549 154.938 47.6109 155.439 47.6109C155.972 47.6109 156.479 47.7389 156.959 47.9949V49.1629C156.522 48.9603 156.132 48.8589 155.791 48.8589C155.492 48.8589 155.295 48.9336 155.199 49.0829C155.103 49.2323 155.055 49.4403 155.055 49.7069V50.8269H156.959V52.0429H155.055ZM164.1 58.0589C163.449 58.8163 162.569 59.1949 161.46 59.1949C160.351 59.1949 159.471 58.8163 158.82 58.0589C158.169 57.3016 157.844 56.2563 157.844 54.9229C157.844 53.5896 158.169 52.5443 158.82 51.7869C159.471 51.0189 160.351 50.6349 161.46 50.6349C162.569 50.6349 163.449 51.0136 164.1 51.7709C164.751 52.5283 165.076 53.5736 165.076 54.9069C165.076 56.2403 164.751 57.2909 164.1 58.0589ZM159.828 57.1149C160.223 57.6376 160.767 57.8989 161.46 57.8989C162.153 57.8989 162.692 57.6376 163.076 57.1149C163.471 56.5816 163.668 55.8456 163.668 54.9069C163.668 53.9789 163.471 53.2483 163.076 52.7149C162.692 52.1816 162.153 51.9149 161.46 51.9149C160.767 51.9149 160.223 52.1816 159.828 52.7149C159.444 53.2376 159.252 53.9736 159.252 54.9229C159.252 55.8509 159.444 56.5816 159.828 57.1149ZM167.246 59.0029V50.8269H168.638V51.8989C169.022 51.0563 169.667 50.6349 170.574 50.6349C171.086 50.6349 171.507 50.7736 171.838 51.0509L171.63 52.3629C171.289 52.1283 170.899 52.0109 170.462 52.0109C169.982 52.0109 169.555 52.1976 169.182 52.5709C168.819 52.9443 168.638 53.5523 168.638 54.3949V59.0029H167.246ZM180.126 59.1949C179.092 59.1949 178.27 58.8109 177.662 58.0429C177.054 57.2749 176.75 56.2296 176.75 54.9069C176.75 53.5736 177.054 52.5283 177.662 51.7709C178.281 51.0136 179.102 50.6349 180.126 50.6349C180.926 50.6349 181.614 50.8909 182.19 51.4029V48.1069L183.582 47.4509V59.0029H182.19V58.3629C181.657 58.9176 180.969 59.1949 180.126 59.1949ZM180.318 57.8989C181.129 57.8989 181.753 57.5309 182.19 56.7949V52.9549C181.753 52.2616 181.129 51.9149 180.318 51.9149C179.625 51.9149 179.092 52.1763 178.718 52.6989C178.345 53.2109 178.158 53.9469 178.158 54.9069C178.158 55.7709 178.35 56.4856 178.734 57.0509C179.129 57.6163 179.657 57.8989 180.318 57.8989ZM189.367 59.1949C188.257 59.1949 187.372 58.8003 186.711 58.0109C186.06 57.2109 185.735 56.1763 185.735 54.9069C185.735 53.5736 186.065 52.5283 186.727 51.7709C187.388 51.0136 188.268 50.6349 189.367 50.6349C190.348 50.6349 191.153 50.9656 191.783 51.6269C192.423 52.2776 192.743 53.2429 192.743 54.5229C192.743 54.8216 192.727 55.1309 192.695 55.4509H187.159C187.212 56.1976 187.441 56.8003 187.847 57.2589C188.263 57.7069 188.78 57.9309 189.399 57.9309C190.081 57.9309 190.668 57.6856 191.159 57.1949L192.007 58.1389C191.303 58.8429 190.423 59.1949 189.367 59.1949ZM187.143 54.2669H191.335C191.324 53.4243 191.121 52.8163 190.727 52.4429C190.343 52.0589 189.889 51.8669 189.367 51.8669C188.737 51.8669 188.22 52.0696 187.815 52.4749C187.409 52.8696 187.185 53.4669 187.143 54.2669ZM197.016 59.0029L194.024 50.8269H195.432L197.368 56.2829C197.507 56.6883 197.592 56.9549 197.624 57.0829C197.656 56.9549 197.741 56.6883 197.88 56.2829L199.784 50.8269H201.176L198.184 59.0029H197.016ZM206.164 59.1949C205.054 59.1949 204.169 58.8003 203.508 58.0109C202.857 57.2109 202.532 56.1763 202.532 54.9069C202.532 53.5736 202.862 52.5283 203.524 51.7709C204.185 51.0136 205.065 50.6349 206.164 50.6349C207.145 50.6349 207.95 50.9656 208.58 51.6269C209.22 52.2776 209.54 53.2429 209.54 54.5229C209.54 54.8216 209.524 55.1309 209.492 55.4509H203.956C204.009 56.1976 204.238 56.8003 204.644 57.2589C205.06 57.7069 205.577 57.9309 206.196 57.9309C206.878 57.9309 207.465 57.6856 207.956 57.1949L208.804 58.1389C208.1 58.8429 207.22 59.1949 206.164 59.1949ZM203.94 54.2669H208.132C208.121 53.4243 207.918 52.8163 207.524 52.4429C207.14 52.0589 206.686 51.8669 206.164 51.8669C205.534 51.8669 205.017 52.0696 204.612 52.4749C204.206 52.8696 203.982 53.4669 203.94 54.2669ZM211.701 59.0029V48.1069L213.093 47.4509V59.0029H211.701ZM221.584 58.0589C220.934 58.8163 220.054 59.1949 218.944 59.1949C217.835 59.1949 216.955 58.8163 216.304 58.0589C215.654 57.3016 215.328 56.2563 215.328 54.9229C215.328 53.5896 215.654 52.5443 216.304 51.7869C216.955 51.0189 217.835 50.6349 218.944 50.6349C220.054 50.6349 220.934 51.0136 221.584 51.7709C222.235 52.5283 222.56 53.5736 222.56 54.9069C222.56 56.2403 222.235 57.2909 221.584 58.0589ZM217.312 57.1149C217.707 57.6376 218.251 57.8989 218.944 57.8989C219.638 57.8989 220.176 57.6376 220.56 57.1149C220.955 56.5816 221.152 55.8456 221.152 54.9069C221.152 53.9789 220.955 53.2483 220.56 52.7149C220.176 52.1816 219.638 51.9149 218.944 51.9149C218.251 51.9149 217.707 52.1816 217.312 52.7149C216.928 53.2376 216.736 53.9736 216.736 54.9229C216.736 55.8509 216.928 56.5816 217.312 57.1149ZM228.218 59.1949C227.365 59.1949 226.666 58.8749 226.122 58.2349V61.5789L224.73 62.2349V50.8269H226.122V51.5149C226.709 50.9283 227.408 50.6349 228.218 50.6349C229.253 50.6349 230.074 51.0189 230.682 51.7869C231.29 52.5549 231.594 53.5949 231.594 54.9069C231.594 56.2403 231.285 57.2909 230.666 58.0589C230.048 58.8163 229.232 59.1949 228.218 59.1949ZM228.042 57.8989C228.725 57.8989 229.248 57.6429 229.61 57.1309C229.984 56.6083 230.17 55.8669 230.17 54.9069C230.17 54.0003 229.978 53.2749 229.594 52.7309C229.221 52.1869 228.704 51.9149 228.042 51.9149C227.178 51.9149 226.538 52.2829 226.122 53.0189V56.7949C226.688 57.5309 227.328 57.8989 228.042 57.8989ZM236.914 59.1949C235.804 59.1949 234.919 58.8003 234.258 58.0109C233.607 57.2109 233.282 56.1763 233.282 54.9069C233.282 53.5736 233.612 52.5283 234.274 51.7709C234.935 51.0136 235.815 50.6349 236.914 50.6349C237.895 50.6349 238.7 50.9656 239.33 51.6269C239.97 52.2776 240.29 53.2429 240.29 54.5229C240.29 54.8216 240.274 55.1309 240.242 55.4509H234.706C234.759 56.1976 234.988 56.8003 235.394 57.2589C235.81 57.7069 236.327 57.9309 236.946 57.9309C237.628 57.9309 238.215 57.6856 238.706 57.1949L239.554 58.1389C238.85 58.8429 237.97 59.1949 236.914 59.1949ZM234.69 54.2669H238.882C238.871 53.4243 238.668 52.8163 238.274 52.4429C237.89 52.0589 237.436 51.8669 236.914 51.8669C236.284 51.8669 235.767 52.0696 235.362 52.4749C234.956 52.8696 234.732 53.4669 234.69 54.2669ZM242.371 59.0029V50.8269H243.763V51.8989C244.147 51.0563 244.792 50.6349 245.699 50.6349C246.211 50.6349 246.632 50.7736 246.963 51.0509L246.755 52.3629C246.414 52.1283 246.024 52.0109 245.587 52.0109C245.107 52.0109 244.68 52.1976 244.307 52.5709C243.944 52.9443 243.763 53.5523 243.763 54.3949V59.0029H242.371ZM251.006 59.1949C250.419 59.1949 249.859 59.0723 249.326 58.8269C248.803 58.5709 248.376 58.2349 248.046 57.8189L249.038 56.9709C249.646 57.6216 250.312 57.9469 251.038 57.9469C251.496 57.9469 251.864 57.8616 252.142 57.6909C252.419 57.5096 252.558 57.2483 252.558 56.9069C252.558 56.6509 252.456 56.4216 252.254 56.2189C252.051 56.0056 251.843 55.8509 251.63 55.7549C251.416 55.6483 251.102 55.5149 250.686 55.3549C249.854 55.0456 249.224 54.6989 248.798 54.3149C248.371 53.9309 248.158 53.4243 248.158 52.7949C248.158 52.1336 248.414 51.6109 248.926 51.2269C249.448 50.8323 250.11 50.6349 250.91 50.6349C252.051 50.6349 252.968 51.0456 253.662 51.8669L252.702 52.6669C252.2 52.1443 251.598 51.8829 250.894 51.8829C250.478 51.8829 250.147 51.9629 249.902 52.1229C249.656 52.2829 249.534 52.5069 249.534 52.7949C249.534 52.9549 249.571 53.1043 249.646 53.2429C249.731 53.3709 249.875 53.4936 250.078 53.6109C250.291 53.7283 250.456 53.8189 250.574 53.8829C250.702 53.9363 250.931 54.0269 251.262 54.1549C252.126 54.4643 252.782 54.8163 253.23 55.2109C253.688 55.6056 253.918 56.1603 253.918 56.8749C253.918 57.6003 253.656 58.1709 253.134 58.5869C252.611 58.9923 251.902 59.1949 251.006 59.1949Z" fill="#6B7B9C"/>
</svg>
