<svg width="35" height="29" viewBox="0 0 35 29" fill="none" xmlns="http://www.w3.org/2000/svg">
<path d="M30.606 0.283691L34.9619 5.03986C31.5995 8.10835 29.4725 10.2435 28.5809 11.4453C27.6894 12.6216 26.9761 14.0663 26.4412 15.7796C26.9252 15.4216 27.4091 15.1659 27.8931 15.0125C28.4026 14.8335 28.9121 14.744 29.4215 14.744C30.899 14.744 32.1981 15.3577 33.3189 16.5851C34.4397 17.8125 35.0001 19.2956 35.0001 21.0344C35.0001 23.08 34.2869 24.8061 32.8604 26.2125C31.4339 27.5933 29.7017 28.2837 27.6639 28.2837C26.161 28.2837 24.709 27.8618 23.308 27.0179C21.9324 26.1485 20.8498 24.9723 20.0602 23.4892C19.296 21.9805 18.9139 20.2417 18.9139 18.2727C18.9139 15.0252 19.9837 11.8545 22.1235 8.7604C24.2887 5.66634 27.1162 2.84077 30.606 0.283691ZM11.6923 0.283691L16.0482 5.03986C12.6602 8.10835 10.5205 10.2435 9.62894 11.4453C8.76286 12.6216 8.06235 14.0663 7.52741 15.7796C8.0114 15.4216 8.49539 15.1659 8.97938 15.0125C9.48884 14.8335 9.9983 14.744 10.5078 14.744C11.9852 14.744 13.2716 15.3577 14.3669 16.5851C15.4877 17.8125 16.0482 19.2956 16.0482 21.0344C16.0482 23.08 15.3349 24.8061 13.9084 26.2125C12.5074 27.5933 10.788 28.2837 8.75012 28.2837C7.24721 28.2837 5.79525 27.8618 4.39423 27.0179C3.01868 26.1485 1.93608 24.9723 1.14641 23.4892C0.382218 21.9805 0.00012207 20.2417 0.00012207 18.2727C0.00012207 15.0252 1.06999 11.8545 3.20973 8.7604C5.37494 5.66634 8.20245 2.84077 11.6923 0.283691Z" fill="#4C70F0"/>
</svg>
