<svg width="60" height="61" viewBox="0 0 60 61" fill="none" xmlns="http://www.w3.org/2000/svg">
<g clip-path="url(#clip0_1_816)">
<path d="M40.0478 37.4517C41.1962 36.6665 42.7899 35.9868 42.7899 35.9868C42.7899 35.9868 38.2548 36.8071 33.7431 37.1821C28.2235 37.6392 22.2938 37.7329 19.3173 37.3345C12.2743 36.397 23.1845 33.8071 23.1845 33.8071C23.1845 33.8071 18.954 33.5259 13.7392 36.0337C7.58682 39.0103 28.9735 40.3696 40.0478 37.4517ZM30.0399 33.6899C27.8134 28.686 20.3017 24.2915 30.0399 16.604C42.1876 7.01807 35.9579 0.783691 35.9579 0.783691C38.4774 10.686 27.0985 13.686 22.9853 19.8384C20.1845 24.0454 24.3563 28.5571 30.0399 33.6899ZM43.4696 13.0415C43.4813 13.0415 22.9384 18.1743 32.747 29.4712C35.6415 32.7993 31.9853 35.7993 31.9853 35.7993C31.9853 35.7993 39.3329 32.0024 35.9579 27.2563C32.8056 22.8267 30.3915 20.6235 43.4696 13.0415ZM42.7548 44.7407C42.6907 44.8524 42.6119 44.9549 42.5204 45.0454C57.5556 41.0962 52.0243 31.1118 44.8407 33.6431C44.4527 33.7856 44.1175 34.0432 43.8798 34.3813C44.2993 34.2295 44.7304 34.112 45.1688 34.0298C48.8017 33.2681 54.0165 38.8931 42.7548 44.7407ZM48.2813 52.0415C48.2813 52.0415 49.9806 53.436 46.4181 54.5259C39.6329 56.5767 18.1993 57.1978 12.2462 54.6079C10.1017 53.6821 14.1212 52.3813 15.3868 52.1118C16.6993 51.8306 17.461 51.8774 17.461 51.8774C15.0821 50.2017 2.07432 55.1704 10.8517 56.5884C34.786 60.479 54.4923 54.8423 48.2813 52.0415ZM22.0829 47.1899C12.8603 49.7681 27.6962 55.0884 39.4384 50.061C38.2932 49.6161 37.1877 49.0751 36.1337 48.4438C30.8954 49.4399 28.4696 49.5103 23.7118 48.9712C19.786 48.5259 22.0829 47.1899 22.0829 47.1899ZM43.1532 58.5806C33.9306 60.3149 22.5517 60.1157 15.8134 59.0024C15.8134 58.9907 17.1962 60.1392 24.2978 60.5962C35.1024 61.2876 51.6962 60.2095 52.0829 55.1001C52.0829 55.1001 51.3329 57.0337 43.1532 58.5806ZM38.0438 42.1509C31.1063 43.4868 27.0868 43.4517 22.0126 42.9243C18.0868 42.5142 20.6532 40.6157 20.6532 40.6157C10.4813 43.9907 26.3017 47.811 40.5165 43.6509C39.5978 43.3265 38.756 42.8158 38.0438 42.1509Z" fill="#272847"/>
</g>
<defs>
<clipPath id="clip0_1_816">
<rect width="60" height="60" fill="white" transform="translate(0.00012207 0.783691)"/>
</clipPath>
</defs>
</svg>
