<svg width="162" height="32" viewBox="0 0 162 32" fill="none" xmlns="http://www.w3.org/2000/svg">
<path fill-rule="evenodd" clip-rule="evenodd" d="M1.72009 11.4102C11.698 7.82506 21.676 4.28312 31.6539 0.69797C34.9367 -0.511477 37.3988 1.30269 36.4485 4.75825L28.7167 29.5087C28.1552 31.8844 25.7363 32.446 23.5333 30.5022L20.5097 28.2129L14.8944 23.9798L10.0134 27.349C10.0134 27.349 8.0265 28.2993 8.0265 26.0964V18.3645L26.3842 9.63924L15.1104 19.5308L24.8724 26.7011L32.0859 4.23992L5.39163 13.354L9.40872 15.4273L5.56441 17.2415L1.07218 14.8226C-0.785189 13.7859 -0.00768733 12.0581 1.72009 11.4102Z" fill="#4C70F0"/>
<path fill-rule="evenodd" clip-rule="evenodd" d="M14.8503 23.9798L12.6906 25.4916L9.88293 20.1787L14.8503 23.9798Z" fill="#2B3C89"/>
<path fill-rule="evenodd" clip-rule="evenodd" d="M76.0461 18.5844C76.0461 18.8119 76.0461 19.0849 76.0006 19.4489H66.0813C66.2633 20.359 66.7183 21.1325 67.4464 21.6785C68.1744 22.2245 69.0844 22.4975 70.1764 22.4975C71.587 22.4975 72.7245 22.0425 73.589 21.1325L75.1816 22.9525C74.6356 23.635 73.9075 24.1356 73.043 24.4996C72.1785 24.8636 71.1775 25.0001 70.0854 25.0001C68.6749 25.0001 67.4919 24.7271 66.3998 24.1811C65.3533 23.635 64.5343 22.8615 63.9428 21.8605C63.3513 20.8595 63.0782 19.7674 63.0782 18.4934C63.0782 17.2649 63.3512 16.1728 63.8973 15.1718C64.4433 14.1708 65.2168 13.3973 66.2178 12.8512C67.2189 12.3052 68.3564 12.0322 69.5849 12.0322C70.8134 12.0322 71.9055 12.3052 72.9065 12.8512C73.862 13.3973 74.6356 14.1708 75.1816 15.1263C75.7731 16.1728 76.0461 17.3104 76.0461 18.5844ZM69.6759 14.4438C68.7204 14.4438 67.9469 14.7168 67.2644 15.2628C66.6273 15.8088 66.2178 16.5823 66.0813 17.4924H73.2705C73.134 16.5823 72.77 15.8543 72.0875 15.2628C71.4505 14.7168 70.6315 14.4438 69.6759 14.4438Z" fill="#22283B"/>
<path fill-rule="evenodd" clip-rule="evenodd" d="M97.2961 18.5844C97.2961 18.8119 97.2961 19.0849 97.2506 19.4489H87.3313C87.5133 20.359 87.9683 21.1325 88.6964 21.6785C89.4244 22.2245 90.3344 22.4975 91.4264 22.4975C92.837 22.4975 93.9745 22.0425 94.839 21.1325L96.4316 22.9525C95.8856 23.635 95.1575 24.1356 94.293 24.4996C93.4285 24.8636 92.4275 25.0001 91.3354 25.0001C89.9249 25.0001 88.7419 24.7271 87.6498 24.1811C86.6033 23.635 85.7843 22.8615 85.1928 21.8605C84.6013 20.8595 84.3282 19.7674 84.3282 18.4934C84.3282 17.2649 84.6013 16.1728 85.1473 15.1718C85.6933 14.1708 86.4668 13.3973 87.4678 12.8512C88.4689 12.3052 89.5609 12.0322 90.8349 12.0322C92.0635 12.0322 93.1555 12.3052 94.1565 12.8512C95.112 13.3973 95.8856 14.1708 96.4316 15.1263C97.0231 16.1728 97.2961 17.3104 97.2961 18.5844ZM90.9259 14.4438C89.9704 14.4438 89.1969 14.7168 88.5144 15.2628C87.8773 15.8088 87.4678 16.5823 87.3313 17.4924H94.5205C94.384 16.5823 94.02 15.8543 93.383 15.2628C92.7005 14.7168 91.8815 14.4438 90.9259 14.4438Z" fill="#22283B"/>
<path fill-rule="evenodd" clip-rule="evenodd" d="M101.571 14.0782C102.436 12.7587 103.937 12.0762 106.076 12.0762V14.8062C105.803 14.8062 105.575 14.8062 105.393 14.8062C104.256 14.8062 103.346 15.1248 102.709 15.8073C102.072 16.4898 101.753 17.4453 101.753 18.7193V24.862H98.7501V12.2127H101.571V14.0782Z" fill="#22283B"/>
<path fill-rule="evenodd" clip-rule="evenodd" d="M118.087 10.3034C117.541 10.3034 117.086 10.1214 116.722 9.75735C116.358 9.39334 116.176 8.93833 116.176 8.43782C116.176 7.8918 116.358 7.48229 116.722 7.11828C117.086 6.75427 117.541 6.57227 118.087 6.57227C118.633 6.57227 119.088 6.75427 119.452 7.07278C119.816 7.39129 119.998 7.8463 119.998 8.34682C119.998 8.89283 119.816 9.34784 119.452 9.71185C119.088 10.1214 118.633 10.3034 118.087 10.3034Z" fill="#22283B"/>
<path fill-rule="evenodd" clip-rule="evenodd" d="M116.59 12.2129H119.548V24.8622H116.59V12.2129Z" fill="#22283B"/>
<path fill-rule="evenodd" clip-rule="evenodd" d="M145.253 18.5844C145.253 18.8119 145.253 19.0849 145.208 19.4489H135.288C135.47 20.359 135.925 21.1325 136.653 21.6785C137.381 22.2245 138.291 22.4975 139.383 22.4975C140.794 22.4975 141.931 22.0425 142.796 21.1325L144.389 22.9525C143.843 23.635 143.115 24.1356 142.25 24.4996C141.385 24.8636 140.384 25.0001 139.292 25.0001C137.882 25.0001 136.699 24.7271 135.607 24.1811C134.56 23.635 133.741 22.8615 133.15 21.8605C132.558 20.8595 132.285 19.7674 132.285 18.4934C132.285 17.2649 132.558 16.1728 133.104 15.1718C133.65 14.1708 134.424 13.3973 135.425 12.8512C136.426 12.3052 137.518 12.0322 138.792 12.0322C140.02 12.0322 141.112 12.3052 142.113 12.8512C143.069 13.3973 143.843 14.1708 144.389 15.1263C144.98 16.1728 145.253 17.3104 145.253 18.5844ZM138.837 14.4438C137.882 14.4438 137.108 14.7168 136.426 15.2628C135.789 15.8088 135.379 16.5823 135.243 17.4924H142.432C142.295 16.5823 141.931 15.8543 141.294 15.2628C140.612 14.7168 139.793 14.4438 138.837 14.4438Z" fill="#22283B"/>
<path fill-rule="evenodd" clip-rule="evenodd" d="M149.666 14.0782C150.531 12.7587 152.032 12.0762 154.171 12.0762V14.8972C153.898 14.8517 153.67 14.8062 153.488 14.8062C152.351 14.8062 151.441 15.1248 150.804 15.8073C150.167 16.4898 149.848 17.4453 149.848 18.7193V24.862H146.891V12.2127H149.712V14.0782H149.666Z" fill="#22283B"/>
<path fill-rule="evenodd" clip-rule="evenodd" d="M85.1479 9.53022C85.1024 9.53022 82.1903 9.53022 82.0993 9.53022C81.0073 9.62122 80.4158 10.2582 80.4158 11.5778V12.3513H83.8284V14.7174H80.5523V24.9096H77.5947V20.405V14.6719V12.3058V11.9873V11.5323C77.5947 10.1672 78.0042 9.12071 78.7778 8.30169C79.5513 7.52817 80.6888 7.11865 82.0993 7.11865C82.1448 7.11865 85.1024 7.11865 85.1479 7.11865V9.53022Z" fill="#22283B"/>
<path fill-rule="evenodd" clip-rule="evenodd" d="M58.3008 19.5402C58.5283 19.4492 58.7558 19.4492 58.9378 19.3582C59.9844 18.9032 60.8034 18.2206 61.3949 17.3106C61.9409 16.4006 62.2594 15.3541 62.2594 14.171C62.2594 12.9425 61.9864 11.896 61.3949 11.0314C60.8034 10.1669 60.0299 9.4844 58.9378 8.98388C57.8913 8.52887 56.6173 8.25586 55.1612 8.25586H48.3361V24.8183H51.4301V10.8494H55.0247C56.3898 10.8494 57.3908 11.1224 58.0733 11.714C58.7558 12.26 59.1198 13.079 59.1198 14.171C59.1198 15.2175 58.7558 16.0366 58.0733 16.6281C57.3908 17.1741 56.3443 17.4926 55.0247 17.4926H52.9317L58.9378 24.8638H62.6234L58.3008 19.5402Z" fill="#22283B"/>
<path fill-rule="evenodd" clip-rule="evenodd" d="M110.491 14.0782C111.355 12.7587 112.857 12.0762 114.995 12.0762V14.8062C114.722 14.8062 114.495 14.8062 114.313 14.8062C113.175 14.8062 112.265 15.1248 111.628 15.8073C110.991 16.4898 110.673 17.4453 110.673 18.7193V24.862H107.715V12.2127H110.536V14.0782H110.491Z" fill="#22283B"/>
<path fill-rule="evenodd" clip-rule="evenodd" d="M155.311 7.61917H154.219V7.11865H156.995V7.61917H155.903V10.3947H155.311V7.61917Z" fill="#22283B"/>
<path fill-rule="evenodd" clip-rule="evenodd" d="M160.726 10.3943L160.68 8.2102L159.634 10.0302H159.361L158.269 8.25569V10.3943H157.723V7.11816H158.223L159.497 9.30222L160.771 7.11816H161.272V10.3943H160.726Z" fill="#22283B"/>
<path fill-rule="evenodd" clip-rule="evenodd" d="M132.057 22.5001V24.8661H121.137V23.0006L128.099 14.5829H121.273V12.2168H131.875V14.0823L124.913 22.5001H132.057Z" fill="#22283B"/>
</svg>
